<?xml version="1.0" encoding="utf-8" standalone="no"?>
<!DOCTYPE svg PUBLIC "-//W3C//DTD SVG 1.1//EN"
  "http://www.w3.org/Graphics/SVG/1.1/DTD/svg11.dtd">
<!-- Created with matplotlib (http://matplotlib.org/) -->
<svg height="388pt" version="1.1" viewBox="0 0 691 388" width="691pt" xmlns="http://www.w3.org/2000/svg" xmlns:xlink="http://www.w3.org/1999/xlink">
 <defs>
  <style type="text/css">
*{stroke-linecap:butt;stroke-linejoin:round;stroke-miterlimit:100000;}
  </style>
 </defs>
 <g id="figure_1">
  <g id="patch_1">
   <path d="M 0 388.8 
L 691.2 388.8 
L 691.2 0 
L 0 0 
z
" style="fill:#ffffff;"/>
  </g>
  <g id="axes_1">
   <g id="patch_2">
    <path d="M 86.4 340.2 
L 622.08 340.2 
L 622.08 38.88 
L 86.4 38.88 
z
" style="fill:#ffffff;"/>
   </g>
   <g id="PolyCollection_1">
    <defs>
     <path d="M 133.130579 -169.186818 
L 133.130579 -119.052364 
L 133.622479 -119.052364 
L 134.11438 -119.052364 
L 134.606281 -119.052364 
L 135.098182 -119.052364 
L 135.098182 -169.186818 
L 135.098182 -169.186818 
L 134.606281 -169.186818 
L 134.11438 -169.186818 
L 133.622479 -169.186818 
L 133.130579 -169.186818 
z
" id="mcaf00c40bc" style="stroke:#268bd2;"/>
    </defs>
    <g clip-path="url(#p9aadfa2025)">
     <use style="fill:#268bd2;stroke:#268bd2;" x="0.0" xlink:href="#mcaf00c40bc" y="388.8"/>
    </g>
   </g>
   <g id="PolyCollection_2">
    <defs>
     <path d="M 135.098182 -169.186818 
L 135.098182 -119.052364 
L 135.098182 -119.052364 
L 135.098182 -119.052364 
L 135.098182 -119.052364 
L 135.098182 -119.052364 
L 135.098182 -119.052364 
L 135.098182 -119.052364 
L 135.098182 -119.052364 
L 135.098182 -119.052364 
L 135.098182 -119.052364 
L 135.098182 -119.052364 
L 135.098182 -119.052364 
L 135.098182 -119.052364 
L 135.098182 -119.052364 
L 135.098182 -119.052364 
L 135.098182 -119.052364 
L 135.098182 -119.052364 
L 135.098182 -119.052364 
L 135.098182 -119.052364 
L 135.098182 -119.052364 
L 135.098182 -119.052364 
L 135.098182 -119.052364 
L 135.098182 -119.052364 
L 135.098182 -119.052364 
L 135.098182 -119.052364 
L 135.098182 -119.052364 
L 135.098182 -119.052364 
L 135.098182 -119.052364 
L 135.098182 -119.052364 
L 135.098182 -119.052364 
L 135.098182 -119.052364 
L 135.098182 -119.052364 
L 135.098182 -119.052364 
L 135.098182 -119.052364 
L 135.098182 -119.052364 
L 135.098182 -119.052364 
L 135.098182 -119.052364 
L 135.098182 -119.052364 
L 135.098182 -119.052364 
L 135.098182 -119.052364 
L 135.098182 -119.052364 
L 135.098182 -119.052364 
L 135.098182 -119.052364 
L 135.098182 -119.052364 
L 135.098182 -119.052364 
L 135.098182 -119.052364 
L 135.098182 -119.052364 
L 135.098182 -119.052364 
L 135.098182 -119.052364 
L 135.098182 -119.052364 
L 135.098182 -119.052364 
L 135.098182 -119.052364 
L 135.098182 -119.052364 
L 135.098182 -119.052364 
L 135.098182 -119.052364 
L 135.098182 -119.052364 
L 135.098182 -119.052364 
L 135.098182 -119.052364 
L 135.098182 -119.052364 
L 135.098182 -119.052364 
L 135.098182 -119.052364 
L 135.098182 -119.052364 
L 135.098182 -119.052364 
L 135.098182 -119.052364 
L 135.098182 -119.052364 
L 135.098182 -119.052364 
L 135.098182 -119.052364 
L 135.098182 -119.052364 
L 135.098182 -119.052364 
L 135.098182 -119.052364 
L 135.098182 -119.052364 
L 135.098182 -119.052364 
L 135.098182 -119.052364 
L 135.098182 -119.052364 
L 135.098182 -119.052364 
L 135.098182 -119.052364 
L 135.098182 -119.052364 
L 135.098182 -119.052364 
L 135.098182 -119.052364 
L 135.098182 -119.052364 
L 135.098182 -119.052364 
L 135.098182 -119.052364 
L 135.098182 -119.052364 
L 135.098182 -119.052364 
L 135.098182 -119.052364 
L 135.098182 -119.052364 
L 135.098182 -119.052364 
L 135.098182 -119.052364 
L 135.098182 -119.052364 
L 135.098182 -119.052364 
L 135.098182 -119.052364 
L 135.098182 -119.052364 
L 135.098182 -119.052364 
L 135.098182 -119.052364 
L 135.098182 -119.052364 
L 135.098182 -119.052364 
L 135.098182 -119.052364 
L 135.098182 -119.052364 
L 135.098182 -119.052364 
L 135.098182 -119.052364 
L 135.098182 -169.186818 
L 135.098182 -169.186818 
L 135.098182 -169.186818 
L 135.098182 -169.186818 
L 135.098182 -169.186818 
L 135.098182 -169.186818 
L 135.098182 -169.186818 
L 135.098182 -169.186818 
L 135.098182 -169.186818 
L 135.098182 -169.186818 
L 135.098182 -169.186818 
L 135.098182 -169.186818 
L 135.098182 -169.186818 
L 135.098182 -169.186818 
L 135.098182 -169.186818 
L 135.098182 -169.186818 
L 135.098182 -169.186818 
L 135.098182 -169.186818 
L 135.098182 -169.186818 
L 135.098182 -169.186818 
L 135.098182 -169.186818 
L 135.098182 -169.186818 
L 135.098182 -169.186818 
L 135.098182 -169.186818 
L 135.098182 -169.186818 
L 135.098182 -169.186818 
L 135.098182 -169.186818 
L 135.098182 -169.186818 
L 135.098182 -169.186818 
L 135.098182 -169.186818 
L 135.098182 -169.186818 
L 135.098182 -169.186818 
L 135.098182 -169.186818 
L 135.098182 -169.186818 
L 135.098182 -169.186818 
L 135.098182 -169.186818 
L 135.098182 -169.186818 
L 135.098182 -169.186818 
L 135.098182 -169.186818 
L 135.098182 -169.186818 
L 135.098182 -169.186818 
L 135.098182 -169.186818 
L 135.098182 -169.186818 
L 135.098182 -169.186818 
L 135.098182 -169.186818 
L 135.098182 -169.186818 
L 135.098182 -169.186818 
L 135.098182 -169.186818 
L 135.098182 -169.186818 
L 135.098182 -169.186818 
L 135.098182 -169.186818 
L 135.098182 -169.186818 
L 135.098182 -169.186818 
L 135.098182 -169.186818 
L 135.098182 -169.186818 
L 135.098182 -169.186818 
L 135.098182 -169.186818 
L 135.098182 -169.186818 
L 135.098182 -169.186818 
L 135.098182 -169.186818 
L 135.098182 -169.186818 
L 135.098182 -169.186818 
L 135.098182 -169.186818 
L 135.098182 -169.186818 
L 135.098182 -169.186818 
L 135.098182 -169.186818 
L 135.098182 -169.186818 
L 135.098182 -169.186818 
L 135.098182 -169.186818 
L 135.098182 -169.186818 
L 135.098182 -169.186818 
L 135.098182 -169.186818 
L 135.098182 -169.186818 
L 135.098182 -169.186818 
L 135.098182 -169.186818 
L 135.098182 -169.186818 
L 135.098182 -169.186818 
L 135.098182 -169.186818 
L 135.098182 -169.186818 
L 135.098182 -169.186818 
L 135.098182 -169.186818 
L 135.098182 -169.186818 
L 135.098182 -169.186818 
L 135.098182 -169.186818 
L 135.098182 -169.186818 
L 135.098182 -169.186818 
L 135.098182 -169.186818 
L 135.098182 -169.186818 
L 135.098182 -169.186818 
L 135.098182 -169.186818 
L 135.098182 -169.186818 
L 135.098182 -169.186818 
L 135.098182 -169.186818 
L 135.098182 -169.186818 
L 135.098182 -169.186818 
L 135.098182 -169.186818 
L 135.098182 -169.186818 
L 135.098182 -169.186818 
L 135.098182 -169.186818 
L 135.098182 -169.186818 
L 135.098182 -169.186818 
z
" id="ma7ad142efb" style="stroke:#268bd2;"/>
    </defs>
    <g clip-path="url(#p9aadfa2025)">
     <use style="fill:#268bd2;stroke:#268bd2;" x="0.0" xlink:href="#ma7ad142efb" y="388.8"/>
    </g>
   </g>
   <g id="PolyCollection_3">
    <defs>
     <path d="M 135.098182 -119.052364 
L 135.098182 -119.052364 
L 135.098182 -119.052364 
L 135.098182 -119.052364 
L 135.098182 -119.052364 
L 135.098182 -119.052364 
L 135.098182 -48.6 
L 135.098182 -48.6 
L 135.098182 -66.213091 
L 135.098182 -83.826182 
L 135.098182 -101.439273 
L 135.098182 -119.052364 
z
" id="m1fc46d21cf" style="stroke:#268bd2;"/>
    </defs>
    <g clip-path="url(#p9aadfa2025)">
     <use style="fill:#268bd2;stroke:#268bd2;" x="0.0" xlink:href="#m1fc46d21cf" y="388.8"/>
    </g>
   </g>
   <g id="PolyCollection_4">
    <defs>
     <path d="M 135.098182 -169.186818 
L 135.098182 -169.186818 
L 135.098182 -169.186818 
L 135.098182 -169.186818 
L 135.098182 -169.186818 
L 135.098182 -169.186818 
L 135.098182 -349.92 
L 135.098182 -349.92 
L 135.098182 -304.736704 
L 135.098182 -259.553409 
L 135.098182 -214.370113 
L 135.098182 -169.186818 
z
" id="mf88e4b6b4a" style="stroke:#268bd2;"/>
    </defs>
    <g clip-path="url(#p9aadfa2025)">
     <use style="fill:#268bd2;stroke:#268bd2;" x="0.0" xlink:href="#mf88e4b6b4a" y="388.8"/>
    </g>
   </g>
   <g id="PolyCollection_5">
    <defs>
     <path d="M 135.098182 -48.6 
L 135.098182 -119.052364 
L 139.912364 -119.052364 
L 144.726546 -119.052364 
L 149.540728 -119.052364 
L 154.354911 -119.052364 
L 159.169093 -119.052364 
L 163.983275 -119.052364 
L 168.797457 -119.052364 
L 173.611639 -119.052364 
L 178.425822 -119.052364 
L 183.240004 -119.052364 
L 188.054186 -119.052364 
L 192.868368 -119.052364 
L 197.682551 -119.052364 
L 202.496733 -119.052364 
L 207.310915 -119.052364 
L 212.125097 -119.052364 
L 216.939279 -119.052364 
L 221.753462 -119.052364 
L 226.567644 -119.052364 
L 231.381826 -119.052364 
L 236.196008 -119.052364 
L 241.01019 -119.052364 
L 245.824373 -119.052364 
L 250.638555 -119.052364 
L 255.452737 -119.052364 
L 260.266919 -119.052364 
L 265.081101 -119.052364 
L 269.895284 -119.052364 
L 274.709466 -119.052364 
L 279.523648 -119.052364 
L 284.33783 -119.052364 
L 289.152012 -119.052364 
L 293.966195 -119.052364 
L 298.780377 -119.052364 
L 303.594559 -119.052364 
L 308.408741 -119.052364 
L 313.222923 -119.052364 
L 318.037106 -119.052364 
L 322.851288 -119.052364 
L 327.66547 -119.052364 
L 332.479652 -119.052364 
L 337.293835 -119.052364 
L 342.108017 -119.052364 
L 346.922199 -119.052364 
L 351.736381 -119.052364 
L 356.550563 -119.052364 
L 361.364746 -119.052364 
L 366.178928 -119.052364 
L 370.99311 -119.052364 
L 375.807292 -119.052364 
L 380.621474 -119.052364 
L 385.435657 -119.052364 
L 390.249839 -119.052364 
L 395.064021 -119.052364 
L 399.878203 -119.052364 
L 404.692385 -119.052364 
L 409.506568 -119.052364 
L 414.32075 -119.052364 
L 419.134932 -119.052364 
L 423.949114 -119.052364 
L 428.763296 -119.052364 
L 433.577479 -119.052364 
L 438.391661 -119.052364 
L 443.205843 -119.052364 
L 448.020025 -119.052364 
L 452.834207 -119.052364 
L 457.64839 -119.052364 
L 462.462572 -119.052364 
L 467.276754 -119.052364 
L 472.090936 -119.052364 
L 476.905119 -119.052364 
L 481.719301 -119.052364 
L 486.533483 -119.052364 
L 491.347665 -119.052364 
L 496.161847 -119.052364 
L 500.97603 -119.052364 
L 505.790212 -119.052364 
L 510.604394 -119.052364 
L 515.418576 -119.052364 
L 520.232758 -119.052364 
L 525.046941 -119.052364 
L 529.861123 -119.052364 
L 534.675305 -119.052364 
L 539.489487 -119.052364 
L 544.303669 -119.052364 
L 549.117852 -119.052364 
L 553.932034 -119.052364 
L 558.746216 -119.052364 
L 563.560398 -119.052364 
L 568.37458 -119.052364 
L 573.188763 -119.052364 
L 578.002945 -119.052364 
L 582.817127 -119.052364 
L 587.631309 -119.052364 
L 592.445491 -119.052364 
L 597.259674 -119.052364 
L 602.073856 -119.052364 
L 606.888038 -119.052364 
L 611.70222 -119.052364 
L 611.70222 -48.6 
L 611.70222 -48.6 
L 606.888038 -48.6 
L 602.073856 -48.6 
L 597.259674 -48.6 
L 592.445491 -48.6 
L 587.631309 -48.6 
L 582.817127 -48.6 
L 578.002945 -48.6 
L 573.188763 -48.6 
L 568.37458 -48.6 
L 563.560398 -48.6 
L 558.746216 -48.6 
L 553.932034 -48.6 
L 549.117852 -48.6 
L 544.303669 -48.6 
L 539.489487 -48.6 
L 534.675305 -48.6 
L 529.861123 -48.6 
L 525.046941 -48.6 
L 520.232758 -48.6 
L 515.418576 -48.6 
L 510.604394 -48.6 
L 505.790212 -48.6 
L 500.97603 -48.6 
L 496.161847 -48.6 
L 491.347665 -48.6 
L 486.533483 -48.6 
L 481.719301 -48.6 
L 476.905119 -48.6 
L 472.090936 -48.6 
L 467.276754 -48.6 
L 462.462572 -48.6 
L 457.64839 -48.6 
L 452.834207 -48.6 
L 448.020025 -48.6 
L 443.205843 -48.6 
L 438.391661 -48.6 
L 433.577479 -48.6 
L 428.763296 -48.6 
L 423.949114 -48.6 
L 419.134932 -48.6 
L 414.32075 -48.6 
L 409.506568 -48.6 
L 404.692385 -48.6 
L 399.878203 -48.6 
L 395.064021 -48.6 
L 390.249839 -48.6 
L 385.435657 -48.6 
L 380.621474 -48.6 
L 375.807292 -48.6 
L 370.99311 -48.6 
L 366.178928 -48.6 
L 361.364746 -48.6 
L 356.550563 -48.6 
L 351.736381 -48.6 
L 346.922199 -48.6 
L 342.108017 -48.6 
L 337.293835 -48.6 
L 332.479652 -48.6 
L 327.66547 -48.6 
L 322.851288 -48.6 
L 318.037106 -48.6 
L 313.222923 -48.6 
L 308.408741 -48.6 
L 303.594559 -48.6 
L 298.780377 -48.6 
L 293.966195 -48.6 
L 289.152012 -48.6 
L 284.33783 -48.6 
L 279.523648 -48.6 
L 274.709466 -48.6 
L 269.895284 -48.6 
L 265.081101 -48.6 
L 260.266919 -48.6 
L 255.452737 -48.6 
L 250.638555 -48.6 
L 245.824373 -48.6 
L 241.01019 -48.6 
L 236.196008 -48.6 
L 231.381826 -48.6 
L 226.567644 -48.6 
L 221.753462 -48.6 
L 216.939279 -48.6 
L 212.125097 -48.6 
L 207.310915 -48.6 
L 202.496733 -48.6 
L 197.682551 -48.6 
L 192.868368 -48.6 
L 188.054186 -48.6 
L 183.240004 -48.6 
L 178.425822 -48.6 
L 173.611639 -48.6 
L 168.797457 -48.6 
L 163.983275 -48.6 
L 159.169093 -48.6 
L 154.354911 -48.6 
L 149.540728 -48.6 
L 144.726546 -48.6 
L 139.912364 -48.6 
L 135.098182 -48.6 
z
" id="mc835605181" style="stroke:#268bd2;"/>
    </defs>
    <g clip-path="url(#p9aadfa2025)">
     <use style="fill:#268bd2;stroke:#268bd2;" x="0.0" xlink:href="#mc835605181" y="388.8"/>
    </g>
   </g>
   <g id="PolyCollection_6">
    <defs>
     <path d="M 592.445491 -119.052364 
L 592.445491 -119.052364 
L 597.259674 -119.052364 
L 602.073856 -119.052364 
L 606.888038 -119.052364 
L 611.70222 -119.052364 
L 611.70222 -119.052364 
L 611.70222 -119.052364 
L 606.888038 -119.052364 
L 602.073856 -119.052364 
L 597.259674 -119.052364 
L 592.445491 -119.052364 
z
" id="m19d9346190" style="stroke:#268bd2;"/>
    </defs>
    <g clip-path="url(#p9aadfa2025)">
     <use style="fill:#268bd2;stroke:#268bd2;" x="0.0" xlink:href="#m19d9346190" y="388.8"/>
    </g>
   </g>
   <g id="PolyCollection_7">
    <defs>
     <path d="M 592.445491 -48.6 
L 592.445491 -48.6 
L 597.259674 -48.6 
L 602.073856 -48.6 
L 606.888038 -48.6 
L 611.70222 -48.6 
L 611.70222 -48.6 
L 611.70222 -48.6 
L 606.888038 -48.6 
L 602.073856 -48.6 
L 597.259674 -48.6 
L 592.445491 -48.6 
z
" id="m8de2e7b96a" style="stroke:#268bd2;"/>
    </defs>
    <g clip-path="url(#p9aadfa2025)">
     <use style="fill:#268bd2;stroke:#268bd2;" x="0.0" xlink:href="#m8de2e7b96a" y="388.8"/>
    </g>
   </g>
   <g id="PolyCollection_8">
    <defs>
     <path d="M 135.098182 -349.92 
L 135.098182 -169.186818 
L 139.912364 -169.186818 
L 144.726546 -169.186818 
L 149.540728 -169.186818 
L 154.354911 -169.186818 
L 159.169093 -169.186818 
L 163.983275 -169.186818 
L 168.797457 -169.186818 
L 173.611639 -169.186818 
L 178.425822 -169.186818 
L 183.240004 -169.186818 
L 188.054186 -169.186818 
L 192.868368 -169.186818 
L 197.682551 -169.186818 
L 202.496733 -169.186818 
L 207.310915 -169.186818 
L 212.125097 -169.186818 
L 216.939279 -169.186818 
L 221.753462 -169.186818 
L 226.567644 -169.186818 
L 231.381826 -169.186818 
L 236.196008 -169.186818 
L 241.01019 -169.186818 
L 245.824373 -169.186818 
L 250.638555 -169.186818 
L 255.452737 -169.186818 
L 260.266919 -169.186818 
L 265.081101 -169.186818 
L 269.895284 -169.186818 
L 274.709466 -169.186818 
L 279.523648 -169.186818 
L 284.33783 -169.186818 
L 289.152012 -169.186818 
L 293.966195 -169.186818 
L 298.780377 -169.186818 
L 303.594559 -169.186818 
L 308.408741 -169.186818 
L 313.222923 -169.186818 
L 318.037106 -169.186818 
L 322.851288 -169.186818 
L 327.66547 -169.186818 
L 332.479652 -169.186818 
L 337.293835 -169.186818 
L 342.108017 -169.186818 
L 346.922199 -169.186818 
L 351.736381 -169.186818 
L 356.550563 -169.186818 
L 361.364746 -169.186818 
L 366.178928 -169.186818 
L 370.99311 -169.186818 
L 375.807292 -169.186818 
L 380.621474 -169.186818 
L 385.435657 -169.186818 
L 390.249839 -169.186818 
L 395.064021 -169.186818 
L 399.878203 -169.186818 
L 404.692385 -169.186818 
L 409.506568 -169.186818 
L 414.32075 -169.186818 
L 419.134932 -169.186818 
L 423.949114 -169.186818 
L 428.763296 -169.186818 
L 433.577479 -169.186818 
L 438.391661 -169.186818 
L 443.205843 -169.186818 
L 448.020025 -169.186818 
L 452.834207 -169.186818 
L 457.64839 -169.186818 
L 462.462572 -169.186818 
L 467.276754 -169.186818 
L 472.090936 -169.186818 
L 476.905119 -169.186818 
L 481.719301 -169.186818 
L 486.533483 -169.186818 
L 491.347665 -169.186818 
L 496.161847 -169.186818 
L 500.97603 -169.186818 
L 505.790212 -169.186818 
L 510.604394 -169.186818 
L 515.418576 -169.186818 
L 520.232758 -169.186818 
L 525.046941 -169.186818 
L 529.861123 -169.186818 
L 534.675305 -169.186818 
L 539.489487 -169.186818 
L 544.303669 -169.186818 
L 549.117852 -169.186818 
L 553.932034 -169.186818 
L 558.746216 -169.186818 
L 563.560398 -169.186818 
L 568.37458 -169.186818 
L 573.188763 -169.186818 
L 578.002945 -169.186818 
L 582.817127 -169.186818 
L 587.631309 -169.186818 
L 592.445491 -169.186818 
L 597.259674 -169.186818 
L 602.073856 -169.186818 
L 606.888038 -169.186818 
L 611.70222 -169.186818 
L 611.70222 -349.92 
L 611.70222 -349.92 
L 606.888038 -349.92 
L 602.073856 -349.92 
L 597.259674 -349.92 
L 592.445491 -349.92 
L 587.631309 -349.92 
L 582.817127 -349.92 
L 578.002945 -349.92 
L 573.188763 -349.92 
L 568.37458 -349.92 
L 563.560398 -349.92 
L 558.746216 -349.92 
L 553.932034 -349.92 
L 549.117852 -349.92 
L 544.303669 -349.92 
L 539.489487 -349.92 
L 534.675305 -349.92 
L 529.861123 -349.92 
L 525.046941 -349.92 
L 520.232758 -349.92 
L 515.418576 -349.92 
L 510.604394 -349.92 
L 505.790212 -349.92 
L 500.97603 -349.92 
L 496.161847 -349.92 
L 491.347665 -349.92 
L 486.533483 -349.92 
L 481.719301 -349.92 
L 476.905119 -349.92 
L 472.090936 -349.92 
L 467.276754 -349.92 
L 462.462572 -349.92 
L 457.64839 -349.92 
L 452.834207 -349.92 
L 448.020025 -349.92 
L 443.205843 -349.92 
L 438.391661 -349.92 
L 433.577479 -349.92 
L 428.763296 -349.92 
L 423.949114 -349.92 
L 419.134932 -349.92 
L 414.32075 -349.92 
L 409.506568 -349.92 
L 404.692385 -349.92 
L 399.878203 -349.92 
L 395.064021 -349.92 
L 390.249839 -349.92 
L 385.435657 -349.92 
L 380.621474 -349.92 
L 375.807292 -349.92 
L 370.99311 -349.92 
L 366.178928 -349.92 
L 361.364746 -349.92 
L 356.550563 -349.92 
L 351.736381 -349.92 
L 346.922199 -349.92 
L 342.108017 -349.92 
L 337.293835 -349.92 
L 332.479652 -349.92 
L 327.66547 -349.92 
L 322.851288 -349.92 
L 318.037106 -349.92 
L 313.222923 -349.92 
L 308.408741 -349.92 
L 303.594559 -349.92 
L 298.780377 -349.92 
L 293.966195 -349.92 
L 289.152012 -349.92 
L 284.33783 -349.92 
L 279.523648 -349.92 
L 274.709466 -349.92 
L 269.895284 -349.92 
L 265.081101 -349.92 
L 260.266919 -349.92 
L 255.452737 -349.92 
L 250.638555 -349.92 
L 245.824373 -349.92 
L 241.01019 -349.92 
L 236.196008 -349.92 
L 231.381826 -349.92 
L 226.567644 -349.92 
L 221.753462 -349.92 
L 216.939279 -349.92 
L 212.125097 -349.92 
L 207.310915 -349.92 
L 202.496733 -349.92 
L 197.682551 -349.92 
L 192.868368 -349.92 
L 188.054186 -349.92 
L 183.240004 -349.92 
L 178.425822 -349.92 
L 173.611639 -349.92 
L 168.797457 -349.92 
L 163.983275 -349.92 
L 159.169093 -349.92 
L 154.354911 -349.92 
L 149.540728 -349.92 
L 144.726546 -349.92 
L 139.912364 -349.92 
L 135.098182 -349.92 
z
" id="m7c35773866" style="stroke:#268bd2;"/>
    </defs>
    <g clip-path="url(#p9aadfa2025)">
     <use style="fill:#268bd2;stroke:#268bd2;" x="0.0" xlink:href="#m7c35773866" y="388.8"/>
    </g>
   </g>
   <g id="PolyCollection_9">
    <defs>
     <path d="M 592.445491 -169.186818 
L 592.445491 -169.186818 
L 597.259674 -169.186818 
L 602.073856 -169.186818 
L 606.888038 -169.186818 
L 611.70222 -169.186818 
L 611.70222 -169.186818 
L 611.70222 -169.186818 
L 606.888038 -169.186818 
L 602.073856 -169.186818 
L 597.259674 -169.186818 
L 592.445491 -169.186818 
z
" id="me4eef008bd" style="stroke:#268bd2;"/>
    </defs>
    <g clip-path="url(#p9aadfa2025)">
     <use style="fill:#268bd2;stroke:#268bd2;" x="0.0" xlink:href="#me4eef008bd" y="388.8"/>
    </g>
   </g>
   <g id="PolyCollection_10">
    <defs>
     <path d="M 592.445491 -349.92 
L 592.445491 -349.92 
L 597.259674 -349.92 
L 602.073856 -349.92 
L 606.888038 -349.92 
L 611.70222 -349.92 
L 611.70222 -349.92 
L 611.70222 -349.92 
L 606.888038 -349.92 
L 602.073856 -349.92 
L 597.259674 -349.92 
L 592.445491 -349.92 
z
" id="m8ba0e33c77" style="stroke:#268bd2;"/>
    </defs>
    <g clip-path="url(#p9aadfa2025)">
     <use style="fill:#268bd2;stroke:#268bd2;" x="0.0" xlink:href="#m8ba0e33c77" y="388.8"/>
    </g>
   </g>
   <g id="PolyCollection_11">
    <defs>
     <path d="M 611.70222 -48.6 
L 611.70222 -119.052364 
L 611.807046 -119.052364 
L 611.911872 -119.052364 
L 612.016698 -119.052364 
L 612.121525 -119.052364 
L 612.226351 -119.052364 
L 612.331177 -119.052364 
L 612.436003 -119.052364 
L 612.540829 -119.052364 
L 612.645655 -119.052364 
L 612.750481 -119.052364 
L 612.855307 -119.052364 
L 612.960133 -119.052364 
L 613.064959 -119.052364 
L 613.169785 -119.052364 
L 613.274611 -119.052364 
L 613.379437 -119.052364 
L 613.484263 -119.052364 
L 613.589089 -119.052364 
L 613.693915 -119.052364 
L 613.798741 -119.052364 
L 613.903568 -119.052364 
L 614.008394 -119.052364 
L 614.11322 -119.052364 
L 614.218046 -119.052364 
L 614.322872 -119.052364 
L 614.427698 -119.052364 
L 614.532524 -119.052364 
L 614.63735 -119.052364 
L 614.742176 -119.052364 
L 614.847002 -119.052364 
L 614.951828 -119.052364 
L 615.056654 -119.052364 
L 615.16148 -119.052364 
L 615.266306 -119.052364 
L 615.371132 -119.052364 
L 615.475958 -119.052364 
L 615.580784 -119.052364 
L 615.68561 -119.052364 
L 615.790437 -119.052364 
L 615.895263 -119.052364 
L 616.000089 -119.052364 
L 616.104915 -119.052364 
L 616.209741 -119.052364 
L 616.314567 -119.052364 
L 616.419393 -119.052364 
L 616.524219 -119.052364 
L 616.629045 -119.052364 
L 616.733871 -119.052364 
L 616.838697 -119.052364 
L 616.943523 -119.052364 
L 617.048349 -119.052364 
L 617.153175 -119.052364 
L 617.258001 -119.052364 
L 617.362827 -119.052364 
L 617.467653 -119.052364 
L 617.57248 -119.052364 
L 617.677306 -119.052364 
L 617.782132 -119.052364 
L 617.886958 -119.052364 
L 617.991784 -119.052364 
L 618.09661 -119.052364 
L 618.201436 -119.052364 
L 618.306262 -119.052364 
L 618.411088 -119.052364 
L 618.515914 -119.052364 
L 618.62074 -119.052364 
L 618.725566 -119.052364 
L 618.830392 -119.052364 
L 618.935218 -119.052364 
L 619.040044 -119.052364 
L 619.14487 -119.052364 
L 619.249696 -119.052364 
L 619.354523 -119.052364 
L 619.459349 -119.052364 
L 619.564175 -119.052364 
L 619.669001 -119.052364 
L 619.773827 -119.052364 
L 619.878653 -119.052364 
L 619.983479 -119.052364 
L 620.088305 -119.052364 
L 620.193131 -119.052364 
L 620.297957 -119.052364 
L 620.402783 -119.052364 
L 620.507609 -119.052364 
L 620.612435 -119.052364 
L 620.717261 -119.052364 
L 620.822087 -119.052364 
L 620.926913 -119.052364 
L 621.031739 -119.052364 
L 621.136565 -119.052364 
L 621.241392 -119.052364 
L 621.346218 -119.052364 
L 621.451044 -119.052364 
L 621.55587 -119.052364 
L 621.660696 -119.052364 
L 621.765522 -119.052364 
L 621.870348 -119.052364 
L 621.975174 -119.052364 
L 622.08 -119.052364 
L 622.08 -48.6 
L 622.08 -48.6 
L 621.975174 -48.6 
L 621.870348 -48.6 
L 621.765522 -48.6 
L 621.660696 -48.6 
L 621.55587 -48.6 
L 621.451044 -48.6 
L 621.346218 -48.6 
L 621.241392 -48.6 
L 621.136565 -48.6 
L 621.031739 -48.6 
L 620.926913 -48.6 
L 620.822087 -48.6 
L 620.717261 -48.6 
L 620.612435 -48.6 
L 620.507609 -48.6 
L 620.402783 -48.6 
L 620.297957 -48.6 
L 620.193131 -48.6 
L 620.088305 -48.6 
L 619.983479 -48.6 
L 619.878653 -48.6 
L 619.773827 -48.6 
L 619.669001 -48.6 
L 619.564175 -48.6 
L 619.459349 -48.6 
L 619.354523 -48.6 
L 619.249696 -48.6 
L 619.14487 -48.6 
L 619.040044 -48.6 
L 618.935218 -48.6 
L 618.830392 -48.6 
L 618.725566 -48.6 
L 618.62074 -48.6 
L 618.515914 -48.6 
L 618.411088 -48.6 
L 618.306262 -48.6 
L 618.201436 -48.6 
L 618.09661 -48.6 
L 617.991784 -48.6 
L 617.886958 -48.6 
L 617.782132 -48.6 
L 617.677306 -48.6 
L 617.57248 -48.6 
L 617.467653 -48.6 
L 617.362827 -48.6 
L 617.258001 -48.6 
L 617.153175 -48.6 
L 617.048349 -48.6 
L 616.943523 -48.6 
L 616.838697 -48.6 
L 616.733871 -48.6 
L 616.629045 -48.6 
L 616.524219 -48.6 
L 616.419393 -48.6 
L 616.314567 -48.6 
L 616.209741 -48.6 
L 616.104915 -48.6 
L 616.000089 -48.6 
L 615.895263 -48.6 
L 615.790437 -48.6 
L 615.68561 -48.6 
L 615.580784 -48.6 
L 615.475958 -48.6 
L 615.371132 -48.6 
L 615.266306 -48.6 
L 615.16148 -48.6 
L 615.056654 -48.6 
L 614.951828 -48.6 
L 614.847002 -48.6 
L 614.742176 -48.6 
L 614.63735 -48.6 
L 614.532524 -48.6 
L 614.427698 -48.6 
L 614.322872 -48.6 
L 614.218046 -48.6 
L 614.11322 -48.6 
L 614.008394 -48.6 
L 613.903568 -48.6 
L 613.798741 -48.6 
L 613.693915 -48.6 
L 613.589089 -48.6 
L 613.484263 -48.6 
L 613.379437 -48.6 
L 613.274611 -48.6 
L 613.169785 -48.6 
L 613.064959 -48.6 
L 612.960133 -48.6 
L 612.855307 -48.6 
L 612.750481 -48.6 
L 612.645655 -48.6 
L 612.540829 -48.6 
L 612.436003 -48.6 
L 612.331177 -48.6 
L 612.226351 -48.6 
L 612.121525 -48.6 
L 612.016698 -48.6 
L 611.911872 -48.6 
L 611.807046 -48.6 
L 611.70222 -48.6 
z
" id="m58e0e5a625" style="stroke:#268bd2;"/>
    </defs>
    <g clip-path="url(#p9aadfa2025)">
     <use style="fill:#268bd2;stroke:#268bd2;" x="0.0" xlink:href="#m58e0e5a625" y="388.8"/>
    </g>
   </g>
   <g id="PolyCollection_12">
    <defs>
     <path d="M 611.70222 -349.92 
L 611.70222 -169.186818 
L 611.807046 -169.186818 
L 611.911872 -169.186818 
L 612.016698 -169.186818 
L 612.121525 -169.186818 
L 612.226351 -169.186818 
L 612.331177 -169.186818 
L 612.436003 -169.186818 
L 612.540829 -169.186818 
L 612.645655 -169.186818 
L 612.750481 -169.186818 
L 612.855307 -169.186818 
L 612.960133 -169.186818 
L 613.064959 -169.186818 
L 613.169785 -169.186818 
L 613.274611 -169.186818 
L 613.379437 -169.186818 
L 613.484263 -169.186818 
L 613.589089 -169.186818 
L 613.693915 -169.186818 
L 613.798741 -169.186818 
L 613.903568 -169.186818 
L 614.008394 -169.186818 
L 614.11322 -169.186818 
L 614.218046 -169.186818 
L 614.322872 -169.186818 
L 614.427698 -169.186818 
L 614.532524 -169.186818 
L 614.63735 -169.186818 
L 614.742176 -169.186818 
L 614.847002 -169.186818 
L 614.951828 -169.186818 
L 615.056654 -169.186818 
L 615.16148 -169.186818 
L 615.266306 -169.186818 
L 615.371132 -169.186818 
L 615.475958 -169.186818 
L 615.580784 -169.186818 
L 615.68561 -169.186818 
L 615.790437 -169.186818 
L 615.895263 -169.186818 
L 616.000089 -169.186818 
L 616.104915 -169.186818 
L 616.209741 -169.186818 
L 616.314567 -169.186818 
L 616.419393 -169.186818 
L 616.524219 -169.186818 
L 616.629045 -169.186818 
L 616.733871 -169.186818 
L 616.838697 -169.186818 
L 616.943523 -169.186818 
L 617.048349 -169.186818 
L 617.153175 -169.186818 
L 617.258001 -169.186818 
L 617.362827 -169.186818 
L 617.467653 -169.186818 
L 617.57248 -169.186818 
L 617.677306 -169.186818 
L 617.782132 -169.186818 
L 617.886958 -169.186818 
L 617.991784 -169.186818 
L 618.09661 -169.186818 
L 618.201436 -169.186818 
L 618.306262 -169.186818 
L 618.411088 -169.186818 
L 618.515914 -169.186818 
L 618.62074 -169.186818 
L 618.725566 -169.186818 
L 618.830392 -169.186818 
L 618.935218 -169.186818 
L 619.040044 -169.186818 
L 619.14487 -169.186818 
L 619.249696 -169.186818 
L 619.354523 -169.186818 
L 619.459349 -169.186818 
L 619.564175 -169.186818 
L 619.669001 -169.186818 
L 619.773827 -169.186818 
L 619.878653 -169.186818 
L 619.983479 -169.186818 
L 620.088305 -169.186818 
L 620.193131 -169.186818 
L 620.297957 -169.186818 
L 620.402783 -169.186818 
L 620.507609 -169.186818 
L 620.612435 -169.186818 
L 620.717261 -169.186818 
L 620.822087 -169.186818 
L 620.926913 -169.186818 
L 621.031739 -169.186818 
L 621.136565 -169.186818 
L 621.241392 -169.186818 
L 621.346218 -169.186818 
L 621.451044 -169.186818 
L 621.55587 -169.186818 
L 621.660696 -169.186818 
L 621.765522 -169.186818 
L 621.870348 -169.186818 
L 621.975174 -169.186818 
L 622.08 -169.186818 
L 622.08 -349.92 
L 622.08 -349.92 
L 621.975174 -349.92 
L 621.870348 -349.92 
L 621.765522 -349.92 
L 621.660696 -349.92 
L 621.55587 -349.92 
L 621.451044 -349.92 
L 621.346218 -349.92 
L 621.241392 -349.92 
L 621.136565 -349.92 
L 621.031739 -349.92 
L 620.926913 -349.92 
L 620.822087 -349.92 
L 620.717261 -349.92 
L 620.612435 -349.92 
L 620.507609 -349.92 
L 620.402783 -349.92 
L 620.297957 -349.92 
L 620.193131 -349.92 
L 620.088305 -349.92 
L 619.983479 -349.92 
L 619.878653 -349.92 
L 619.773827 -349.92 
L 619.669001 -349.92 
L 619.564175 -349.92 
L 619.459349 -349.92 
L 619.354523 -349.92 
L 619.249696 -349.92 
L 619.14487 -349.92 
L 619.040044 -349.92 
L 618.935218 -349.92 
L 618.830392 -349.92 
L 618.725566 -349.92 
L 618.62074 -349.92 
L 618.515914 -349.92 
L 618.411088 -349.92 
L 618.306262 -349.92 
L 618.201436 -349.92 
L 618.09661 -349.92 
L 617.991784 -349.92 
L 617.886958 -349.92 
L 617.782132 -349.92 
L 617.677306 -349.92 
L 617.57248 -349.92 
L 617.467653 -349.92 
L 617.362827 -349.92 
L 617.258001 -349.92 
L 617.153175 -349.92 
L 617.048349 -349.92 
L 616.943523 -349.92 
L 616.838697 -349.92 
L 616.733871 -349.92 
L 616.629045 -349.92 
L 616.524219 -349.92 
L 616.419393 -349.92 
L 616.314567 -349.92 
L 616.209741 -349.92 
L 616.104915 -349.92 
L 616.000089 -349.92 
L 615.895263 -349.92 
L 615.790437 -349.92 
L 615.68561 -349.92 
L 615.580784 -349.92 
L 615.475958 -349.92 
L 615.371132 -349.92 
L 615.266306 -349.92 
L 615.16148 -349.92 
L 615.056654 -349.92 
L 614.951828 -349.92 
L 614.847002 -349.92 
L 614.742176 -349.92 
L 614.63735 -349.92 
L 614.532524 -349.92 
L 614.427698 -349.92 
L 614.322872 -349.92 
L 614.218046 -349.92 
L 614.11322 -349.92 
L 614.008394 -349.92 
L 613.903568 -349.92 
L 613.798741 -349.92 
L 613.693915 -349.92 
L 613.589089 -349.92 
L 613.484263 -349.92 
L 613.379437 -349.92 
L 613.274611 -349.92 
L 613.169785 -349.92 
L 613.064959 -349.92 
L 612.960133 -349.92 
L 612.855307 -349.92 
L 612.750481 -349.92 
L 612.645655 -349.92 
L 612.540829 -349.92 
L 612.436003 -349.92 
L 612.331177 -349.92 
L 612.226351 -349.92 
L 612.121525 -349.92 
L 612.016698 -349.92 
L 611.911872 -349.92 
L 611.807046 -349.92 
L 611.70222 -349.92 
z
" id="m01da61b62d" style="stroke:#268bd2;"/>
    </defs>
    <g clip-path="url(#p9aadfa2025)">
     <use style="fill:#268bd2;stroke:#268bd2;" x="0.0" xlink:href="#m01da61b62d" y="388.8"/>
    </g>
   </g>
   <g id="patch_3">
    <path clip-path="url(#p9aadfa2025)" d="M 86.4 269.747636 
L 86.891901 269.747636 
L 86.891901 219.613182 
L 86.4 219.613182 
z
" style="fill:#ffffff;stroke:#ffffff;stroke-linejoin:miter;"/>
   </g>
   <g id="patch_4">
    <path clip-path="url(#p9aadfa2025)" d="M 86.891901 269.747636 
L 87.383802 269.747636 
L 87.383802 219.613182 
L 86.891901 219.613182 
z
" style="fill:#fdfeff;stroke:#fdfeff;stroke-linejoin:miter;"/>
   </g>
   <g id="patch_5">
    <path clip-path="url(#p9aadfa2025)" d="M 87.383802 269.747636 
L 87.875702 269.747636 
L 87.875702 219.613182 
L 87.383802 219.613182 
z
" style="fill:#fbfdfe;stroke:#fbfdfe;stroke-linejoin:miter;"/>
   </g>
   <g id="patch_6">
    <path clip-path="url(#p9aadfa2025)" d="M 87.875702 269.747636 
L 88.367603 269.747636 
L 88.367603 219.613182 
L 87.875702 219.613182 
z
" style="fill:#f8fbfe;stroke:#f8fbfe;stroke-linejoin:miter;"/>
   </g>
   <g id="patch_7">
    <path clip-path="url(#p9aadfa2025)" d="M 88.367603 269.747636 
L 88.859504 269.747636 
L 88.859504 219.613182 
L 88.367603 219.613182 
z
" style="fill:#f6fafd;stroke:#f6fafd;stroke-linejoin:miter;"/>
   </g>
   <g id="patch_8">
    <path clip-path="url(#p9aadfa2025)" d="M 88.859504 269.747636 
L 89.351405 269.747636 
L 89.351405 219.613182 
L 88.859504 219.613182 
z
" style="fill:#f4f9fd;stroke:#f4f9fd;stroke-linejoin:miter;"/>
   </g>
   <g id="patch_9">
    <path clip-path="url(#p9aadfa2025)" d="M 89.351405 269.747636 
L 89.843306 269.747636 
L 89.843306 219.613182 
L 89.351405 219.613182 
z
" style="fill:#f1f8fc;stroke:#f1f8fc;stroke-linejoin:miter;"/>
   </g>
   <g id="patch_10">
    <path clip-path="url(#p9aadfa2025)" d="M 89.843306 269.747636 
L 90.335207 269.747636 
L 90.335207 219.613182 
L 89.843306 219.613182 
z
" style="fill:#eff6fc;stroke:#eff6fc;stroke-linejoin:miter;"/>
   </g>
   <g id="patch_11">
    <path clip-path="url(#p9aadfa2025)" d="M 90.335207 269.747636 
L 90.827107 269.747636 
L 90.827107 219.613182 
L 90.335207 219.613182 
z
" style="fill:#edf5fb;stroke:#edf5fb;stroke-linejoin:miter;"/>
   </g>
   <g id="patch_12">
    <path clip-path="url(#p9aadfa2025)" d="M 90.827107 269.747636 
L 91.319008 269.747636 
L 91.319008 219.613182 
L 90.827107 219.613182 
z
" style="fill:#ebf4fb;stroke:#ebf4fb;stroke-linejoin:miter;"/>
   </g>
   <g id="patch_13">
    <path clip-path="url(#p9aadfa2025)" d="M 91.319008 269.747636 
L 91.810909 269.747636 
L 91.810909 219.613182 
L 91.319008 219.613182 
z
" style="fill:#e8f3fa;stroke:#e8f3fa;stroke-linejoin:miter;"/>
   </g>
   <g id="patch_14">
    <path clip-path="url(#p9aadfa2025)" d="M 91.810909 269.747636 
L 92.30281 269.747636 
L 92.30281 219.613182 
L 91.810909 219.613182 
z
" style="fill:#e6f2fa;stroke:#e6f2fa;stroke-linejoin:miter;"/>
   </g>
   <g id="patch_15">
    <path clip-path="url(#p9aadfa2025)" d="M 92.30281 269.747636 
L 92.794711 269.747636 
L 92.794711 219.613182 
L 92.30281 219.613182 
z
" style="fill:#e4f0f9;stroke:#e4f0f9;stroke-linejoin:miter;"/>
   </g>
   <g id="patch_16">
    <path clip-path="url(#p9aadfa2025)" d="M 92.794711 269.747636 
L 93.286612 269.747636 
L 93.286612 219.613182 
L 92.794711 219.613182 
z
" style="fill:#e1eff9;stroke:#e1eff9;stroke-linejoin:miter;"/>
   </g>
   <g id="patch_17">
    <path clip-path="url(#p9aadfa2025)" d="M 93.286612 269.747636 
L 93.778512 269.747636 
L 93.778512 219.613182 
L 93.286612 219.613182 
z
" style="fill:#dfeef8;stroke:#dfeef8;stroke-linejoin:miter;"/>
   </g>
   <g id="patch_18">
    <path clip-path="url(#p9aadfa2025)" d="M 93.778512 269.747636 
L 94.270413 269.747636 
L 94.270413 219.613182 
L 93.778512 219.613182 
z
" style="fill:#ddedf8;stroke:#ddedf8;stroke-linejoin:miter;"/>
   </g>
   <g id="patch_19">
    <path clip-path="url(#p9aadfa2025)" d="M 94.270413 269.747636 
L 94.762314 269.747636 
L 94.762314 219.613182 
L 94.270413 219.613182 
z
" style="fill:#daebf7;stroke:#daebf7;stroke-linejoin:miter;"/>
   </g>
   <g id="patch_20">
    <path clip-path="url(#p9aadfa2025)" d="M 94.762314 269.747636 
L 95.254215 269.747636 
L 95.254215 219.613182 
L 94.762314 219.613182 
z
" style="fill:#d8eaf7;stroke:#d8eaf7;stroke-linejoin:miter;"/>
   </g>
   <g id="patch_21">
    <path clip-path="url(#p9aadfa2025)" d="M 95.254215 269.747636 
L 95.746116 269.747636 
L 95.746116 219.613182 
L 95.254215 219.613182 
z
" style="fill:#d5e9f6;stroke:#d5e9f6;stroke-linejoin:miter;"/>
   </g>
   <g id="patch_22">
    <path clip-path="url(#p9aadfa2025)" d="M 95.746116 269.747636 
L 96.238017 269.747636 
L 96.238017 219.613182 
L 95.746116 219.613182 
z
" style="fill:#d4e8f6;stroke:#d4e8f6;stroke-linejoin:miter;"/>
   </g>
   <g id="patch_23">
    <path clip-path="url(#p9aadfa2025)" d="M 96.238017 269.747636 
L 96.729917 269.747636 
L 96.729917 219.613182 
L 96.238017 219.613182 
z
" style="fill:#d1e6f5;stroke:#d1e6f5;stroke-linejoin:miter;"/>
   </g>
   <g id="patch_24">
    <path clip-path="url(#p9aadfa2025)" d="M 96.729917 269.747636 
L 97.221818 269.747636 
L 97.221818 219.613182 
L 96.729917 219.613182 
z
" style="fill:#cee5f5;stroke:#cee5f5;stroke-linejoin:miter;"/>
   </g>
   <g id="patch_25">
    <path clip-path="url(#p9aadfa2025)" d="M 97.221818 269.747636 
L 97.713719 269.747636 
L 97.713719 219.613182 
L 97.221818 219.613182 
z
" style="fill:#cde4f5;stroke:#cde4f5;stroke-linejoin:miter;"/>
   </g>
   <g id="patch_26">
    <path clip-path="url(#p9aadfa2025)" d="M 97.713719 269.747636 
L 98.20562 269.747636 
L 98.20562 219.613182 
L 97.713719 219.613182 
z
" style="fill:#cae3f4;stroke:#cae3f4;stroke-linejoin:miter;"/>
   </g>
   <g id="patch_27">
    <path clip-path="url(#p9aadfa2025)" d="M 98.20562 269.747636 
L 98.697521 269.747636 
L 98.697521 219.613182 
L 98.20562 219.613182 
z
" style="fill:#c8e1f4;stroke:#c8e1f4;stroke-linejoin:miter;"/>
   </g>
   <g id="patch_28">
    <path clip-path="url(#p9aadfa2025)" d="M 98.697521 269.747636 
L 99.189421 269.747636 
L 99.189421 219.613182 
L 98.697521 219.613182 
z
" style="fill:#c5e0f3;stroke:#c5e0f3;stroke-linejoin:miter;"/>
   </g>
   <g id="patch_29">
    <path clip-path="url(#p9aadfa2025)" d="M 99.189421 269.747636 
L 99.681322 269.747636 
L 99.681322 219.613182 
L 99.189421 219.613182 
z
" style="fill:#c3dff3;stroke:#c3dff3;stroke-linejoin:miter;"/>
   </g>
   <g id="patch_30">
    <path clip-path="url(#p9aadfa2025)" d="M 99.681322 269.747636 
L 100.173223 269.747636 
L 100.173223 219.613182 
L 99.681322 219.613182 
z
" style="fill:#c1def2;stroke:#c1def2;stroke-linejoin:miter;"/>
   </g>
   <g id="patch_31">
    <path clip-path="url(#p9aadfa2025)" d="M 100.173223 269.747636 
L 100.665124 269.747636 
L 100.665124 219.613182 
L 100.173223 219.613182 
z
" style="fill:#bedcf2;stroke:#bedcf2;stroke-linejoin:miter;"/>
   </g>
   <g id="patch_32">
    <path clip-path="url(#p9aadfa2025)" d="M 100.665124 269.747636 
L 101.157025 269.747636 
L 101.157025 219.613182 
L 100.665124 219.613182 
z
" style="fill:#bddcf1;stroke:#bddcf1;stroke-linejoin:miter;"/>
   </g>
   <g id="patch_33">
    <path clip-path="url(#p9aadfa2025)" d="M 101.157025 269.747636 
L 101.648926 269.747636 
L 101.648926 219.613182 
L 101.157025 219.613182 
z
" style="fill:#badaf1;stroke:#badaf1;stroke-linejoin:miter;"/>
   </g>
   <g id="patch_34">
    <path clip-path="url(#p9aadfa2025)" d="M 101.648926 269.747636 
L 102.140826 269.747636 
L 102.140826 219.613182 
L 101.648926 219.613182 
z
" style="fill:#b8d9f0;stroke:#b8d9f0;stroke-linejoin:miter;"/>
   </g>
   <g id="patch_35">
    <path clip-path="url(#p9aadfa2025)" d="M 102.140826 269.747636 
L 102.632727 269.747636 
L 102.632727 219.613182 
L 102.140826 219.613182 
z
" style="fill:#b5d7f0;stroke:#b5d7f0;stroke-linejoin:miter;"/>
   </g>
   <g id="patch_36">
    <path clip-path="url(#p9aadfa2025)" d="M 102.632727 269.747636 
L 103.124628 269.747636 
L 103.124628 219.613182 
L 102.632727 219.613182 
z
" style="fill:#b3d7ef;stroke:#b3d7ef;stroke-linejoin:miter;"/>
   </g>
   <g id="patch_37">
    <path clip-path="url(#p9aadfa2025)" d="M 103.124628 269.747636 
L 103.616529 269.747636 
L 103.616529 219.613182 
L 103.124628 219.613182 
z
" style="fill:#b1d5ef;stroke:#b1d5ef;stroke-linejoin:miter;"/>
   </g>
   <g id="patch_38">
    <path clip-path="url(#p9aadfa2025)" d="M 103.616529 269.747636 
L 104.10843 269.747636 
L 104.10843 219.613182 
L 103.616529 219.613182 
z
" style="fill:#aed4ee;stroke:#aed4ee;stroke-linejoin:miter;"/>
   </g>
   <g id="patch_39">
    <path clip-path="url(#p9aadfa2025)" d="M 104.10843 269.747636 
L 104.600331 269.747636 
L 104.600331 219.613182 
L 104.10843 219.613182 
z
" style="fill:#acd2ee;stroke:#acd2ee;stroke-linejoin:miter;"/>
   </g>
   <g id="patch_40">
    <path clip-path="url(#p9aadfa2025)" d="M 104.600331 269.747636 
L 105.092231 269.747636 
L 105.092231 219.613182 
L 104.600331 219.613182 
z
" style="fill:#aad2ed;stroke:#aad2ed;stroke-linejoin:miter;"/>
   </g>
   <g id="patch_41">
    <path clip-path="url(#p9aadfa2025)" d="M 105.092231 269.747636 
L 105.584132 269.747636 
L 105.584132 219.613182 
L 105.092231 219.613182 
z
" style="fill:#a7d0ed;stroke:#a7d0ed;stroke-linejoin:miter;"/>
   </g>
   <g id="patch_42">
    <path clip-path="url(#p9aadfa2025)" d="M 105.584132 269.747636 
L 106.076033 269.747636 
L 106.076033 219.613182 
L 105.584132 219.613182 
z
" style="fill:#a5cfec;stroke:#a5cfec;stroke-linejoin:miter;"/>
   </g>
   <g id="patch_43">
    <path clip-path="url(#p9aadfa2025)" d="M 106.076033 269.747636 
L 106.567934 269.747636 
L 106.567934 219.613182 
L 106.076033 219.613182 
z
" style="fill:#a3ceec;stroke:#a3ceec;stroke-linejoin:miter;"/>
   </g>
   <g id="patch_44">
    <path clip-path="url(#p9aadfa2025)" d="M 106.567934 269.747636 
L 107.059835 269.747636 
L 107.059835 219.613182 
L 106.567934 219.613182 
z
" style="fill:#a1cdeb;stroke:#a1cdeb;stroke-linejoin:miter;"/>
   </g>
   <g id="patch_45">
    <path clip-path="url(#p9aadfa2025)" d="M 107.059835 269.747636 
L 107.551736 269.747636 
L 107.551736 219.613182 
L 107.059835 219.613182 
z
" style="fill:#9ecbeb;stroke:#9ecbeb;stroke-linejoin:miter;"/>
   </g>
   <g id="patch_46">
    <path clip-path="url(#p9aadfa2025)" d="M 107.551736 269.747636 
L 108.043636 269.747636 
L 108.043636 219.613182 
L 107.551736 219.613182 
z
" style="fill:#9bcaea;stroke:#9bcaea;stroke-linejoin:miter;"/>
   </g>
   <g id="patch_47">
    <path clip-path="url(#p9aadfa2025)" d="M 108.043636 269.747636 
L 108.535537 269.747636 
L 108.535537 219.613182 
L 108.043636 219.613182 
z
" style="fill:#9ac9ea;stroke:#9ac9ea;stroke-linejoin:miter;"/>
   </g>
   <g id="patch_48">
    <path clip-path="url(#p9aadfa2025)" d="M 108.535537 269.747636 
L 109.027438 269.747636 
L 109.027438 219.613182 
L 108.535537 219.613182 
z
" style="fill:#97c8e9;stroke:#97c8e9;stroke-linejoin:miter;"/>
   </g>
   <g id="patch_49">
    <path clip-path="url(#p9aadfa2025)" d="M 109.027438 269.747636 
L 109.519339 269.747636 
L 109.519339 219.613182 
L 109.027438 219.613182 
z
" style="fill:#95c6e9;stroke:#95c6e9;stroke-linejoin:miter;"/>
   </g>
   <g id="patch_50">
    <path clip-path="url(#p9aadfa2025)" d="M 109.519339 269.747636 
L 110.01124 269.747636 
L 110.01124 219.613182 
L 109.519339 219.613182 
z
" style="fill:#92c5e8;stroke:#92c5e8;stroke-linejoin:miter;"/>
   </g>
   <g id="patch_51">
    <path clip-path="url(#p9aadfa2025)" d="M 110.01124 269.747636 
L 110.50314 269.747636 
L 110.50314 219.613182 
L 110.01124 219.613182 
z
" style="fill:#90c4e8;stroke:#90c4e8;stroke-linejoin:miter;"/>
   </g>
   <g id="patch_52">
    <path clip-path="url(#p9aadfa2025)" d="M 110.50314 269.747636 
L 110.995041 269.747636 
L 110.995041 219.613182 
L 110.50314 219.613182 
z
" style="fill:#8ec2e8;stroke:#8ec2e8;stroke-linejoin:miter;"/>
   </g>
   <g id="patch_53">
    <path clip-path="url(#p9aadfa2025)" d="M 110.995041 269.747636 
L 111.486942 269.747636 
L 111.486942 219.613182 
L 110.995041 219.613182 
z
" style="fill:#8bc1e7;stroke:#8bc1e7;stroke-linejoin:miter;"/>
   </g>
   <g id="patch_54">
    <path clip-path="url(#p9aadfa2025)" d="M 111.486942 269.747636 
L 111.978843 269.747636 
L 111.978843 219.613182 
L 111.486942 219.613182 
z
" style="fill:#8ac0e7;stroke:#8ac0e7;stroke-linejoin:miter;"/>
   </g>
   <g id="patch_55">
    <path clip-path="url(#p9aadfa2025)" d="M 111.978843 269.747636 
L 112.470744 269.747636 
L 112.470744 219.613182 
L 111.978843 219.613182 
z
" style="fill:#87bfe6;stroke:#87bfe6;stroke-linejoin:miter;"/>
   </g>
   <g id="patch_56">
    <path clip-path="url(#p9aadfa2025)" d="M 112.470744 269.747636 
L 112.962645 269.747636 
L 112.962645 219.613182 
L 112.470744 219.613182 
z
" style="fill:#84bde6;stroke:#84bde6;stroke-linejoin:miter;"/>
   </g>
   <g id="patch_57">
    <path clip-path="url(#p9aadfa2025)" d="M 112.962645 269.747636 
L 113.454545 269.747636 
L 113.454545 219.613182 
L 112.962645 219.613182 
z
" style="fill:#82bce5;stroke:#82bce5;stroke-linejoin:miter;"/>
   </g>
   <g id="patch_58">
    <path clip-path="url(#p9aadfa2025)" d="M 113.454545 269.747636 
L 113.946446 269.747636 
L 113.946446 219.613182 
L 113.454545 219.613182 
z
" style="fill:#80bbe5;stroke:#80bbe5;stroke-linejoin:miter;"/>
   </g>
   <g id="patch_59">
    <path clip-path="url(#p9aadfa2025)" d="M 113.946446 269.747636 
L 114.438347 269.747636 
L 114.438347 219.613182 
L 113.946446 219.613182 
z
" style="fill:#7ebae4;stroke:#7ebae4;stroke-linejoin:miter;"/>
   </g>
   <g id="patch_60">
    <path clip-path="url(#p9aadfa2025)" d="M 114.438347 269.747636 
L 114.930248 269.747636 
L 114.930248 219.613182 
L 114.438347 219.613182 
z
" style="fill:#7bb8e4;stroke:#7bb8e4;stroke-linejoin:miter;"/>
   </g>
   <g id="patch_61">
    <path clip-path="url(#p9aadfa2025)" d="M 114.930248 269.747636 
L 115.422149 269.747636 
L 115.422149 219.613182 
L 114.930248 219.613182 
z
" style="fill:#79b8e3;stroke:#79b8e3;stroke-linejoin:miter;"/>
   </g>
   <g id="patch_62">
    <path clip-path="url(#p9aadfa2025)" d="M 115.422149 269.747636 
L 115.91405 269.747636 
L 115.91405 219.613182 
L 115.422149 219.613182 
z
" style="fill:#77b6e3;stroke:#77b6e3;stroke-linejoin:miter;"/>
   </g>
   <g id="patch_63">
    <path clip-path="url(#p9aadfa2025)" d="M 115.91405 269.747636 
L 116.40595 269.747636 
L 116.40595 219.613182 
L 115.91405 219.613182 
z
" style="fill:#74b5e2;stroke:#74b5e2;stroke-linejoin:miter;"/>
   </g>
   <g id="patch_64">
    <path clip-path="url(#p9aadfa2025)" d="M 116.40595 269.747636 
L 116.897851 269.747636 
L 116.897851 219.613182 
L 116.40595 219.613182 
z
" style="fill:#72b3e2;stroke:#72b3e2;stroke-linejoin:miter;"/>
   </g>
   <g id="patch_65">
    <path clip-path="url(#p9aadfa2025)" d="M 116.897851 269.747636 
L 117.389752 269.747636 
L 117.389752 219.613182 
L 116.897851 219.613182 
z
" style="fill:#70b3e1;stroke:#70b3e1;stroke-linejoin:miter;"/>
   </g>
   <g id="patch_66">
    <path clip-path="url(#p9aadfa2025)" d="M 117.389752 269.747636 
L 117.881653 269.747636 
L 117.881653 219.613182 
L 117.389752 219.613182 
z
" style="fill:#6db1e1;stroke:#6db1e1;stroke-linejoin:miter;"/>
   </g>
   <g id="patch_67">
    <path clip-path="url(#p9aadfa2025)" d="M 117.881653 269.747636 
L 118.373554 269.747636 
L 118.373554 219.613182 
L 117.881653 219.613182 
z
" style="fill:#6bb0e0;stroke:#6bb0e0;stroke-linejoin:miter;"/>
   </g>
   <g id="patch_68">
    <path clip-path="url(#p9aadfa2025)" d="M 118.373554 269.747636 
L 118.865455 269.747636 
L 118.865455 219.613182 
L 118.373554 219.613182 
z
" style="fill:#68aee0;stroke:#68aee0;stroke-linejoin:miter;"/>
   </g>
   <g id="patch_69">
    <path clip-path="url(#p9aadfa2025)" d="M 118.865455 269.747636 
L 119.357355 269.747636 
L 119.357355 219.613182 
L 118.865455 219.613182 
z
" style="fill:#67aedf;stroke:#67aedf;stroke-linejoin:miter;"/>
   </g>
   <g id="patch_70">
    <path clip-path="url(#p9aadfa2025)" d="M 119.357355 269.747636 
L 119.849256 269.747636 
L 119.849256 219.613182 
L 119.357355 219.613182 
z
" style="fill:#64acdf;stroke:#64acdf;stroke-linejoin:miter;"/>
   </g>
   <g id="patch_71">
    <path clip-path="url(#p9aadfa2025)" d="M 119.849256 269.747636 
L 120.341157 269.747636 
L 120.341157 219.613182 
L 119.849256 219.613182 
z
" style="fill:#62abde;stroke:#62abde;stroke-linejoin:miter;"/>
   </g>
   <g id="patch_72">
    <path clip-path="url(#p9aadfa2025)" d="M 120.341157 269.747636 
L 120.833058 269.747636 
L 120.833058 219.613182 
L 120.341157 219.613182 
z
" style="fill:#60aade;stroke:#60aade;stroke-linejoin:miter;"/>
   </g>
   <g id="patch_73">
    <path clip-path="url(#p9aadfa2025)" d="M 120.833058 269.747636 
L 121.324959 269.747636 
L 121.324959 219.613182 
L 120.833058 219.613182 
z
" style="fill:#5da9dd;stroke:#5da9dd;stroke-linejoin:miter;"/>
   </g>
   <g id="patch_74">
    <path clip-path="url(#p9aadfa2025)" d="M 121.324959 269.747636 
L 121.81686 269.747636 
L 121.81686 219.613182 
L 121.324959 219.613182 
z
" style="fill:#5ba7dd;stroke:#5ba7dd;stroke-linejoin:miter;"/>
   </g>
   <g id="patch_75">
    <path clip-path="url(#p9aadfa2025)" d="M 121.81686 269.747636 
L 122.30876 269.747636 
L 122.30876 219.613182 
L 121.81686 219.613182 
z
" style="fill:#58a6dc;stroke:#58a6dc;stroke-linejoin:miter;"/>
   </g>
   <g id="patch_76">
    <path clip-path="url(#p9aadfa2025)" d="M 122.30876 269.747636 
L 122.800661 269.747636 
L 122.800661 219.613182 
L 122.30876 219.613182 
z
" style="fill:#57a5dc;stroke:#57a5dc;stroke-linejoin:miter;"/>
   </g>
   <g id="patch_77">
    <path clip-path="url(#p9aadfa2025)" d="M 122.800661 269.747636 
L 123.292562 269.747636 
L 123.292562 219.613182 
L 122.800661 219.613182 
z
" style="fill:#54a4dc;stroke:#54a4dc;stroke-linejoin:miter;"/>
   </g>
   <g id="patch_78">
    <path clip-path="url(#p9aadfa2025)" d="M 123.292562 269.747636 
L 123.784463 269.747636 
L 123.784463 219.613182 
L 123.292562 219.613182 
z
" style="fill:#51a2db;stroke:#51a2db;stroke-linejoin:miter;"/>
   </g>
   <g id="patch_79">
    <path clip-path="url(#p9aadfa2025)" d="M 123.784463 269.747636 
L 124.276364 269.747636 
L 124.276364 219.613182 
L 123.784463 219.613182 
z
" style="fill:#50a1db;stroke:#50a1db;stroke-linejoin:miter;"/>
   </g>
   <g id="patch_80">
    <path clip-path="url(#p9aadfa2025)" d="M 124.276364 269.747636 
L 124.768264 269.747636 
L 124.768264 219.613182 
L 124.276364 219.613182 
z
" style="fill:#4da0da;stroke:#4da0da;stroke-linejoin:miter;"/>
   </g>
   <g id="patch_81">
    <path clip-path="url(#p9aadfa2025)" d="M 124.768264 269.747636 
L 125.260165 269.747636 
L 125.260165 219.613182 
L 124.768264 219.613182 
z
" style="fill:#4b9fda;stroke:#4b9fda;stroke-linejoin:miter;"/>
   </g>
   <g id="patch_82">
    <path clip-path="url(#p9aadfa2025)" d="M 125.260165 269.747636 
L 125.752066 269.747636 
L 125.752066 219.613182 
L 125.260165 219.613182 
z
" style="fill:#489dd9;stroke:#489dd9;stroke-linejoin:miter;"/>
   </g>
   <g id="patch_83">
    <path clip-path="url(#p9aadfa2025)" d="M 125.752066 269.747636 
L 126.243967 269.747636 
L 126.243967 219.613182 
L 125.752066 219.613182 
z
" style="fill:#469cd9;stroke:#469cd9;stroke-linejoin:miter;"/>
   </g>
   <g id="patch_84">
    <path clip-path="url(#p9aadfa2025)" d="M 126.243967 269.747636 
L 126.735868 269.747636 
L 126.735868 219.613182 
L 126.243967 219.613182 
z
" style="fill:#449bd8;stroke:#449bd8;stroke-linejoin:miter;"/>
   </g>
   <g id="patch_85">
    <path clip-path="url(#p9aadfa2025)" d="M 126.735868 269.747636 
L 127.227769 269.747636 
L 127.227769 219.613182 
L 126.735868 219.613182 
z
" style="fill:#419ad8;stroke:#419ad8;stroke-linejoin:miter;"/>
   </g>
   <g id="patch_86">
    <path clip-path="url(#p9aadfa2025)" d="M 127.227769 269.747636 
L 127.719669 269.747636 
L 127.719669 219.613182 
L 127.227769 219.613182 
z
" style="fill:#3f98d7;stroke:#3f98d7;stroke-linejoin:miter;"/>
   </g>
   <g id="patch_87">
    <path clip-path="url(#p9aadfa2025)" d="M 127.719669 269.747636 
L 128.21157 269.747636 
L 128.21157 219.613182 
L 127.719669 219.613182 
z
" style="fill:#3d97d7;stroke:#3d97d7;stroke-linejoin:miter;"/>
   </g>
   <g id="patch_88">
    <path clip-path="url(#p9aadfa2025)" d="M 128.21157 269.747636 
L 128.703471 269.747636 
L 128.703471 219.613182 
L 128.21157 219.613182 
z
" style="fill:#3a96d6;stroke:#3a96d6;stroke-linejoin:miter;"/>
   </g>
   <g id="patch_89">
    <path clip-path="url(#p9aadfa2025)" d="M 128.703471 269.747636 
L 129.195372 269.747636 
L 129.195372 219.613182 
L 128.703471 219.613182 
z
" style="fill:#3895d6;stroke:#3895d6;stroke-linejoin:miter;"/>
   </g>
   <g id="patch_90">
    <path clip-path="url(#p9aadfa2025)" d="M 129.195372 269.747636 
L 129.687273 269.747636 
L 129.687273 219.613182 
L 129.195372 219.613182 
z
" style="fill:#3694d5;stroke:#3694d5;stroke-linejoin:miter;"/>
   </g>
   <g id="patch_91">
    <path clip-path="url(#p9aadfa2025)" d="M 129.687273 269.747636 
L 130.179174 269.747636 
L 130.179174 219.613182 
L 129.687273 219.613182 
z
" style="fill:#3492d5;stroke:#3492d5;stroke-linejoin:miter;"/>
   </g>
   <g id="patch_92">
    <path clip-path="url(#p9aadfa2025)" d="M 130.179174 269.747636 
L 130.671074 269.747636 
L 130.671074 219.613182 
L 130.179174 219.613182 
z
" style="fill:#3191d4;stroke:#3191d4;stroke-linejoin:miter;"/>
   </g>
   <g id="patch_93">
    <path clip-path="url(#p9aadfa2025)" d="M 130.671074 269.747636 
L 131.162975 269.747636 
L 131.162975 219.613182 
L 130.671074 219.613182 
z
" style="fill:#2f90d4;stroke:#2f90d4;stroke-linejoin:miter;"/>
   </g>
   <g id="patch_94">
    <path clip-path="url(#p9aadfa2025)" d="M 131.162975 269.747636 
L 131.654876 269.747636 
L 131.654876 219.613182 
L 131.162975 219.613182 
z
" style="fill:#2d8fd3;stroke:#2d8fd3;stroke-linejoin:miter;"/>
   </g>
   <g id="patch_95">
    <path clip-path="url(#p9aadfa2025)" d="M 131.654876 269.747636 
L 132.146777 269.747636 
L 132.146777 219.613182 
L 131.654876 219.613182 
z
" style="fill:#2a8dd3;stroke:#2a8dd3;stroke-linejoin:miter;"/>
   </g>
   <g id="patch_96">
    <path clip-path="url(#p9aadfa2025)" d="M 132.146777 269.747636 
L 132.638678 269.747636 
L 132.638678 219.613182 
L 132.146777 219.613182 
z
" style="fill:#288cd2;stroke:#288cd2;stroke-linejoin:miter;"/>
   </g>
   <g id="patch_97">
    <path clip-path="url(#p9aadfa2025)" d="M 132.638678 269.747636 
L 133.130579 269.747636 
L 133.130579 219.613182 
L 132.638678 219.613182 
z
" style="fill:#268bd2;stroke:#268bd2;stroke-linejoin:miter;"/>
   </g>
   <g id="patch_98">
    <path clip-path="url(#p9aadfa2025)" d="M 293.966195 219.613182 
L 296.761398 225.639582 
L 294.897929 225.639582 
L 294.897929 269.747636 
L 293.03446 269.747636 
L 293.03446 225.639582 
L 291.170991 225.639582 
z
" style="fill:#073642;stroke:#073642;stroke-linejoin:miter;"/>
   </g>
   <g id="patch_99">
    <path clip-path="url(#p9aadfa2025)" d="M 452.834207 269.747636 
L 438.224753 263.721236 
L 447.964389 263.721236 
L 447.964389 219.613182 
L 457.704026 219.613182 
L 457.704026 263.721236 
L 467.443662 263.721236 
z
" style="fill:#073642;stroke:#073642;stroke-linejoin:miter;"/>
   </g>
   <g id="patch_100">
    <path d="M 86.4 38.88 
L 622.08 38.88 
" style="fill:none;stroke:#002b36;stroke-linecap:square;stroke-linejoin:miter;"/>
   </g>
   <g id="patch_101">
    <path d="M 622.08 340.2 
L 622.08 38.88 
" style="fill:none;stroke:#002b36;stroke-linecap:square;stroke-linejoin:miter;"/>
   </g>
   <g id="patch_102">
    <path d="M 86.4 340.2 
L 622.08 340.2 
" style="fill:none;stroke:#002b36;stroke-linecap:square;stroke-linejoin:miter;"/>
   </g>
   <g id="patch_103">
    <path d="M 86.4 340.2 
L 86.4 38.88 
" style="fill:none;stroke:#002b36;stroke-linecap:square;stroke-linejoin:miter;"/>
   </g>
   <g id="matplotlib.axis_1">
    <g id="xtick_1">
     <g id="line2d_1">
      <defs>
       <path d="M 0 0 
L 0 -4 
" id="m3781f6b337" style="stroke:#000000;stroke-width:0.5;"/>
      </defs>
      <g>
       <use style="stroke:#000000;stroke-width:0.5;" x="135.098181818" xlink:href="#m3781f6b337" y="340.2"/>
      </g>
     </g>
     <g id="text_1">
      <!-- 1290 -->
      <defs>
       <path d="M 19.1875 8.296875 
L 53.609375 8.296875 
L 53.609375 0 
L 7.328125 0 
L 7.328125 8.296875 
Q 12.9375 14.109375 22.625 23.890625 
Q 32.328125 33.6875 34.8125 36.53125 
Q 39.546875 41.84375 41.421875 45.53125 
Q 43.3125 49.21875 43.3125 52.78125 
Q 43.3125 58.59375 39.234375 62.25 
Q 35.15625 65.921875 28.609375 65.921875 
Q 23.96875 65.921875 18.8125 64.3125 
Q 13.671875 62.703125 7.8125 59.421875 
L 7.8125 69.390625 
Q 13.765625 71.78125 18.9375 73 
Q 24.125 74.21875 28.421875 74.21875 
Q 39.75 74.21875 46.484375 68.546875 
Q 53.21875 62.890625 53.21875 53.421875 
Q 53.21875 48.921875 51.53125 44.890625 
Q 49.859375 40.875 45.40625 35.40625 
Q 44.1875 33.984375 37.640625 27.21875 
Q 31.109375 20.453125 19.1875 8.296875 
" id="BitstreamVeraSans-Roman-32"/>
       <path d="M 10.984375 1.515625 
L 10.984375 10.5 
Q 14.703125 8.734375 18.5 7.8125 
Q 22.3125 6.890625 25.984375 6.890625 
Q 35.75 6.890625 40.890625 13.453125 
Q 46.046875 20.015625 46.78125 33.40625 
Q 43.953125 29.203125 39.59375 26.953125 
Q 35.25 24.703125 29.984375 24.703125 
Q 19.046875 24.703125 12.671875 31.3125 
Q 6.296875 37.9375 6.296875 49.421875 
Q 6.296875 60.640625 12.9375 67.421875 
Q 19.578125 74.21875 30.609375 74.21875 
Q 43.265625 74.21875 49.921875 64.515625 
Q 56.59375 54.828125 56.59375 36.375 
Q 56.59375 19.140625 48.40625 8.859375 
Q 40.234375 -1.421875 26.421875 -1.421875 
Q 22.703125 -1.421875 18.890625 -0.6875 
Q 15.09375 0.046875 10.984375 1.515625 
M 30.609375 32.421875 
Q 37.25 32.421875 41.125 36.953125 
Q 45.015625 41.5 45.015625 49.421875 
Q 45.015625 57.28125 41.125 61.84375 
Q 37.25 66.40625 30.609375 66.40625 
Q 23.96875 66.40625 20.09375 61.84375 
Q 16.21875 57.28125 16.21875 49.421875 
Q 16.21875 41.5 20.09375 36.953125 
Q 23.96875 32.421875 30.609375 32.421875 
" id="BitstreamVeraSans-Roman-39"/>
       <path d="M 12.40625 8.296875 
L 28.515625 8.296875 
L 28.515625 63.921875 
L 10.984375 60.40625 
L 10.984375 69.390625 
L 28.421875 72.90625 
L 38.28125 72.90625 
L 38.28125 8.296875 
L 54.390625 8.296875 
L 54.390625 0 
L 12.40625 0 
z
" id="BitstreamVeraSans-Roman-31"/>
       <path d="M 31.78125 66.40625 
Q 24.171875 66.40625 20.328125 58.90625 
Q 16.5 51.421875 16.5 36.375 
Q 16.5 21.390625 20.328125 13.890625 
Q 24.171875 6.390625 31.78125 6.390625 
Q 39.453125 6.390625 43.28125 13.890625 
Q 47.125 21.390625 47.125 36.375 
Q 47.125 51.421875 43.28125 58.90625 
Q 39.453125 66.40625 31.78125 66.40625 
M 31.78125 74.21875 
Q 44.046875 74.21875 50.515625 64.515625 
Q 56.984375 54.828125 56.984375 36.375 
Q 56.984375 17.96875 50.515625 8.265625 
Q 44.046875 -1.421875 31.78125 -1.421875 
Q 19.53125 -1.421875 13.0625 8.265625 
Q 6.59375 17.96875 6.59375 36.375 
Q 6.59375 54.828125 13.0625 64.515625 
Q 19.53125 74.21875 31.78125 74.21875 
" id="BitstreamVeraSans-Roman-30"/>
      </defs>
      <g style="fill:#002b36;" transform="translate(119.828181818 353.318125)scale(0.12 -0.12)">
       <use xlink:href="#BitstreamVeraSans-Roman-31"/>
       <use x="63.623046875" xlink:href="#BitstreamVeraSans-Roman-32"/>
       <use x="127.24609375" xlink:href="#BitstreamVeraSans-Roman-39"/>
       <use x="190.869140625" xlink:href="#BitstreamVeraSans-Roman-30"/>
      </g>
     </g>
    </g>
    <g id="xtick_2">
     <g id="line2d_2">
      <g>
       <use style="stroke:#000000;stroke-width:0.5;" x="135.098181818" xlink:href="#m3781f6b337" y="340.2"/>
      </g>
     </g>
     <g id="text_2">
      <!-- 1290 -->
      <g style="fill:#002b36;" transform="translate(119.828181818 353.318125)scale(0.12 -0.12)">
       <use xlink:href="#BitstreamVeraSans-Roman-31"/>
       <use x="63.623046875" xlink:href="#BitstreamVeraSans-Roman-32"/>
       <use x="127.24609375" xlink:href="#BitstreamVeraSans-Roman-39"/>
       <use x="190.869140625" xlink:href="#BitstreamVeraSans-Roman-30"/>
      </g>
     </g>
    </g>
    <g id="xtick_3">
     <g id="line2d_3">
      <g>
       <use style="stroke:#000000;stroke-width:0.5;" x="611.702220314" xlink:href="#m3781f6b337" y="340.2"/>
      </g>
     </g>
     <g id="text_3">
      <!-- 27 -->
      <defs>
       <path d="M 8.203125 72.90625 
L 55.078125 72.90625 
L 55.078125 68.703125 
L 28.609375 0 
L 18.3125 0 
L 43.21875 64.59375 
L 8.203125 64.59375 
z
" id="BitstreamVeraSans-Roman-37"/>
      </defs>
      <g style="fill:#002b36;" transform="translate(604.067220314 353.318125)scale(0.12 -0.12)">
       <use xlink:href="#BitstreamVeraSans-Roman-32"/>
       <use x="63.623046875" xlink:href="#BitstreamVeraSans-Roman-37"/>
      </g>
     </g>
    </g>
    <g id="xtick_4">
     <g id="line2d_4">
      <g>
       <use style="stroke:#000000;stroke-width:0.5;" x="622.08" xlink:href="#m3781f6b337" y="340.2"/>
      </g>
     </g>
     <g id="text_4">
      <!-- 0 -->
      <g style="fill:#002b36;" transform="translate(618.2625 353.318125)scale(0.12 -0.12)">
       <use xlink:href="#BitstreamVeraSans-Roman-30"/>
      </g>
     </g>
    </g>
    <g id="text_5">
     <!-- Time Ago (KY) -->
     <defs>
      <path id="BitstreamVeraSans-Roman-20"/>
      <path d="M 9.8125 72.90625 
L 19.671875 72.90625 
L 19.671875 42.09375 
L 52.390625 72.90625 
L 65.09375 72.90625 
L 28.90625 38.921875 
L 67.671875 0 
L 54.6875 0 
L 19.671875 35.109375 
L 19.671875 0 
L 9.8125 0 
z
" id="BitstreamVeraSans-Roman-4b"/>
      <path d="M 8.015625 75.875 
L 15.828125 75.875 
Q 23.140625 64.359375 26.78125 53.3125 
Q 30.421875 42.28125 30.421875 31.390625 
Q 30.421875 20.453125 26.78125 9.375 
Q 23.140625 -1.703125 15.828125 -13.1875 
L 8.015625 -13.1875 
Q 14.5 -2 17.703125 9.0625 
Q 20.90625 20.125 20.90625 31.390625 
Q 20.90625 42.671875 17.703125 53.65625 
Q 14.5 64.65625 8.015625 75.875 
" id="BitstreamVeraSans-Roman-29"/>
      <path d="M 52 44.1875 
Q 55.375 50.25 60.0625 53.125 
Q 64.75 56 71.09375 56 
Q 79.640625 56 84.28125 50.015625 
Q 88.921875 44.046875 88.921875 33.015625 
L 88.921875 0 
L 79.890625 0 
L 79.890625 32.71875 
Q 79.890625 40.578125 77.09375 44.375 
Q 74.3125 48.1875 68.609375 48.1875 
Q 61.625 48.1875 57.5625 43.546875 
Q 53.515625 38.921875 53.515625 30.90625 
L 53.515625 0 
L 44.484375 0 
L 44.484375 32.71875 
Q 44.484375 40.625 41.703125 44.40625 
Q 38.921875 48.1875 33.109375 48.1875 
Q 26.21875 48.1875 22.15625 43.53125 
Q 18.109375 38.875 18.109375 30.90625 
L 18.109375 0 
L 9.078125 0 
L 9.078125 54.6875 
L 18.109375 54.6875 
L 18.109375 46.1875 
Q 21.1875 51.21875 25.484375 53.609375 
Q 29.78125 56 35.6875 56 
Q 41.65625 56 45.828125 52.96875 
Q 50 49.953125 52 44.1875 
" id="BitstreamVeraSans-Roman-6d"/>
      <path d="M 30.609375 48.390625 
Q 23.390625 48.390625 19.1875 42.75 
Q 14.984375 37.109375 14.984375 27.296875 
Q 14.984375 17.484375 19.15625 11.84375 
Q 23.34375 6.203125 30.609375 6.203125 
Q 37.796875 6.203125 41.984375 11.859375 
Q 46.1875 17.53125 46.1875 27.296875 
Q 46.1875 37.015625 41.984375 42.703125 
Q 37.796875 48.390625 30.609375 48.390625 
M 30.609375 56 
Q 42.328125 56 49.015625 48.375 
Q 55.71875 40.765625 55.71875 27.296875 
Q 55.71875 13.875 49.015625 6.21875 
Q 42.328125 -1.421875 30.609375 -1.421875 
Q 18.84375 -1.421875 12.171875 6.21875 
Q 5.515625 13.875 5.515625 27.296875 
Q 5.515625 40.765625 12.171875 48.375 
Q 18.84375 56 30.609375 56 
" id="BitstreamVeraSans-Roman-6f"/>
      <path d="M -0.203125 72.90625 
L 10.40625 72.90625 
L 30.609375 42.921875 
L 50.6875 72.90625 
L 61.28125 72.90625 
L 35.5 34.71875 
L 35.5 0 
L 25.59375 0 
L 25.59375 34.71875 
z
" id="BitstreamVeraSans-Roman-59"/>
      <path d="M 9.421875 54.6875 
L 18.40625 54.6875 
L 18.40625 0 
L 9.421875 0 
z
M 9.421875 75.984375 
L 18.40625 75.984375 
L 18.40625 64.59375 
L 9.421875 64.59375 
z
" id="BitstreamVeraSans-Roman-69"/>
      <path d="M 34.1875 63.1875 
L 20.796875 26.90625 
L 47.609375 26.90625 
z
M 28.609375 72.90625 
L 39.796875 72.90625 
L 67.578125 0 
L 57.328125 0 
L 50.6875 18.703125 
L 17.828125 18.703125 
L 11.1875 0 
L 0.78125 0 
z
" id="BitstreamVeraSans-Roman-41"/>
      <path d="M 31 75.875 
Q 24.46875 64.65625 21.28125 53.65625 
Q 18.109375 42.671875 18.109375 31.390625 
Q 18.109375 20.125 21.3125 9.0625 
Q 24.515625 -2 31 -13.1875 
L 23.1875 -13.1875 
Q 15.875 -1.703125 12.234375 9.375 
Q 8.59375 20.453125 8.59375 31.390625 
Q 8.59375 42.28125 12.203125 53.3125 
Q 15.828125 64.359375 23.1875 75.875 
z
" id="BitstreamVeraSans-Roman-28"/>
      <path d="M 56.203125 29.59375 
L 56.203125 25.203125 
L 14.890625 25.203125 
Q 15.484375 15.921875 20.484375 11.0625 
Q 25.484375 6.203125 34.421875 6.203125 
Q 39.59375 6.203125 44.453125 7.46875 
Q 49.3125 8.734375 54.109375 11.28125 
L 54.109375 2.78125 
Q 49.265625 0.734375 44.1875 -0.34375 
Q 39.109375 -1.421875 33.890625 -1.421875 
Q 20.796875 -1.421875 13.15625 6.1875 
Q 5.515625 13.8125 5.515625 26.8125 
Q 5.515625 40.234375 12.765625 48.109375 
Q 20.015625 56 32.328125 56 
Q 43.359375 56 49.78125 48.890625 
Q 56.203125 41.796875 56.203125 29.59375 
M 47.21875 32.234375 
Q 47.125 39.59375 43.09375 43.984375 
Q 39.0625 48.390625 32.421875 48.390625 
Q 24.90625 48.390625 20.390625 44.140625 
Q 15.875 39.890625 15.1875 32.171875 
z
" id="BitstreamVeraSans-Roman-65"/>
      <path d="M -0.296875 72.90625 
L 61.375 72.90625 
L 61.375 64.59375 
L 35.5 64.59375 
L 35.5 0 
L 25.59375 0 
L 25.59375 64.59375 
L -0.296875 64.59375 
z
" id="BitstreamVeraSans-Roman-54"/>
      <path d="M 45.40625 27.984375 
Q 45.40625 37.75 41.375 43.109375 
Q 37.359375 48.484375 30.078125 48.484375 
Q 22.859375 48.484375 18.828125 43.109375 
Q 14.796875 37.75 14.796875 27.984375 
Q 14.796875 18.265625 18.828125 12.890625 
Q 22.859375 7.515625 30.078125 7.515625 
Q 37.359375 7.515625 41.375 12.890625 
Q 45.40625 18.265625 45.40625 27.984375 
M 54.390625 6.78125 
Q 54.390625 -7.171875 48.1875 -13.984375 
Q 42 -20.796875 29.203125 -20.796875 
Q 24.46875 -20.796875 20.265625 -20.09375 
Q 16.0625 -19.390625 12.109375 -17.921875 
L 12.109375 -9.1875 
Q 16.0625 -11.328125 19.921875 -12.34375 
Q 23.78125 -13.375 27.78125 -13.375 
Q 36.625 -13.375 41.015625 -8.765625 
Q 45.40625 -4.15625 45.40625 5.171875 
L 45.40625 9.625 
Q 42.625 4.78125 38.28125 2.390625 
Q 33.9375 0 27.875 0 
Q 17.828125 0 11.671875 7.65625 
Q 5.515625 15.328125 5.515625 27.984375 
Q 5.515625 40.671875 11.671875 48.328125 
Q 17.828125 56 27.875 56 
Q 33.9375 56 38.28125 53.609375 
Q 42.625 51.21875 45.40625 46.390625 
L 45.40625 54.6875 
L 54.390625 54.6875 
z
" id="BitstreamVeraSans-Roman-67"/>
     </defs>
     <g style="fill:#002b36;" transform="translate(297.5175 372.97125)scale(0.16 -0.16)">
      <use xlink:href="#BitstreamVeraSans-Roman-54"/>
      <use x="61.037109375" xlink:href="#BitstreamVeraSans-Roman-69"/>
      <use x="88.8203125" xlink:href="#BitstreamVeraSans-Roman-6d"/>
      <use x="186.232421875" xlink:href="#BitstreamVeraSans-Roman-65"/>
      <use x="247.755859375" xlink:href="#BitstreamVeraSans-Roman-20"/>
      <use x="279.54296875" xlink:href="#BitstreamVeraSans-Roman-41"/>
      <use x="347.951171875" xlink:href="#BitstreamVeraSans-Roman-67"/>
      <use x="411.427734375" xlink:href="#BitstreamVeraSans-Roman-6f"/>
      <use x="472.609375" xlink:href="#BitstreamVeraSans-Roman-20"/>
      <use x="504.396484375" xlink:href="#BitstreamVeraSans-Roman-28"/>
      <use x="543.41015625" xlink:href="#BitstreamVeraSans-Roman-4b"/>
      <use x="608.939453125" xlink:href="#BitstreamVeraSans-Roman-59"/>
      <use x="670.0234375" xlink:href="#BitstreamVeraSans-Roman-29"/>
     </g>
    </g>
   </g>
   <g id="matplotlib.axis_2">
    <g id="ytick_1">
     <g id="line2d_5">
      <path clip-path="url(#p9aadfa2025)" d="M 86.4 340.2 
L 622.08 340.2 
" style="fill:none;stroke:#586e75;stroke-dasharray:1.000000,3.000000;stroke-dashoffset:0.0;stroke-width:0.5;"/>
     </g>
     <g id="line2d_6">
      <defs>
       <path d="M 0 0 
L 4 0 
" id="m43b83e7c62"/>
      </defs>
      <g>
       <use style="fill:none;" x="86.4" xlink:href="#m43b83e7c62" y="340.2"/>
      </g>
     </g>
     <g id="text_6">
      <!-- 0 -->
      <g transform="translate(73.4925 344.063125)scale(0.14 -0.14)">
       <use xlink:href="#BitstreamVeraSans-Roman-30"/>
      </g>
     </g>
    </g>
    <g id="ytick_2">
     <g id="line2d_7">
      <path clip-path="url(#p9aadfa2025)" d="M 86.4 290.065546 
L 622.08 290.065546 
" style="fill:none;stroke:#586e75;stroke-dasharray:1.000000,3.000000;stroke-dashoffset:0.0;stroke-width:0.5;"/>
     </g>
     <g id="line2d_8">
      <g>
       <use style="fill:none;" x="86.4" xlink:href="#m43b83e7c62" y="290.065545915"/>
      </g>
     </g>
     <g id="text_7">
      <!-- 1 -->
      <g transform="translate(73.4925 293.928670915)scale(0.14 -0.14)">
       <use xlink:href="#BitstreamVeraSans-Roman-31"/>
      </g>
     </g>
    </g>
    <g id="ytick_3">
     <g id="line2d_9">
      <path clip-path="url(#p9aadfa2025)" d="M 86.4 239.931092 
L 622.08 239.931092 
" style="fill:none;stroke:#586e75;stroke-dasharray:1.000000,3.000000;stroke-dashoffset:0.0;stroke-width:0.5;"/>
     </g>
     <g id="line2d_10">
      <g>
       <use style="fill:none;" x="86.4" xlink:href="#m43b83e7c62" y="239.931091829"/>
      </g>
     </g>
     <g id="text_8">
      <!-- 2 -->
      <g transform="translate(73.4925 243.794216829)scale(0.14 -0.14)">
       <use xlink:href="#BitstreamVeraSans-Roman-32"/>
      </g>
     </g>
    </g>
    <g id="ytick_4">
     <g id="line2d_11">
      <path clip-path="url(#p9aadfa2025)" d="M 86.4 189.796638 
L 622.08 189.796638 
" style="fill:none;stroke:#586e75;stroke-dasharray:1.000000,3.000000;stroke-dashoffset:0.0;stroke-width:0.5;"/>
     </g>
     <g id="line2d_12">
      <g>
       <use style="fill:none;" x="86.4" xlink:href="#m43b83e7c62" y="189.796637744"/>
      </g>
     </g>
     <g id="text_9">
      <!-- 3 -->
      <defs>
       <path d="M 40.578125 39.3125 
Q 47.65625 37.796875 51.625 33 
Q 55.609375 28.21875 55.609375 21.1875 
Q 55.609375 10.40625 48.1875 4.484375 
Q 40.765625 -1.421875 27.09375 -1.421875 
Q 22.515625 -1.421875 17.65625 -0.515625 
Q 12.796875 0.390625 7.625 2.203125 
L 7.625 11.71875 
Q 11.71875 9.328125 16.59375 8.109375 
Q 21.484375 6.890625 26.8125 6.890625 
Q 36.078125 6.890625 40.9375 10.546875 
Q 45.796875 14.203125 45.796875 21.1875 
Q 45.796875 27.640625 41.28125 31.265625 
Q 36.765625 34.90625 28.71875 34.90625 
L 20.21875 34.90625 
L 20.21875 43.015625 
L 29.109375 43.015625 
Q 36.375 43.015625 40.234375 45.921875 
Q 44.09375 48.828125 44.09375 54.296875 
Q 44.09375 59.90625 40.109375 62.90625 
Q 36.140625 65.921875 28.71875 65.921875 
Q 24.65625 65.921875 20.015625 65.03125 
Q 15.375 64.15625 9.8125 62.3125 
L 9.8125 71.09375 
Q 15.4375 72.65625 20.34375 73.4375 
Q 25.25 74.21875 29.59375 74.21875 
Q 40.828125 74.21875 47.359375 69.109375 
Q 53.90625 64.015625 53.90625 55.328125 
Q 53.90625 49.265625 50.4375 45.09375 
Q 46.96875 40.921875 40.578125 39.3125 
" id="BitstreamVeraSans-Roman-33"/>
      </defs>
      <g transform="translate(73.4925 193.659762744)scale(0.14 -0.14)">
       <use xlink:href="#BitstreamVeraSans-Roman-33"/>
      </g>
     </g>
    </g>
    <g id="ytick_5">
     <g id="line2d_13">
      <path clip-path="url(#p9aadfa2025)" d="M 86.4 139.662184 
L 622.08 139.662184 
" style="fill:none;stroke:#586e75;stroke-dasharray:1.000000,3.000000;stroke-dashoffset:0.0;stroke-width:0.5;"/>
     </g>
     <g id="line2d_14">
      <g>
       <use style="fill:none;" x="86.4" xlink:href="#m43b83e7c62" y="139.662183658"/>
      </g>
     </g>
     <g id="text_10">
      <!-- 4 -->
      <defs>
       <path d="M 37.796875 64.3125 
L 12.890625 25.390625 
L 37.796875 25.390625 
z
M 35.203125 72.90625 
L 47.609375 72.90625 
L 47.609375 25.390625 
L 58.015625 25.390625 
L 58.015625 17.1875 
L 47.609375 17.1875 
L 47.609375 0 
L 37.796875 0 
L 37.796875 17.1875 
L 4.890625 17.1875 
L 4.890625 26.703125 
z
" id="BitstreamVeraSans-Roman-34"/>
      </defs>
      <g transform="translate(73.4925 143.525308658)scale(0.14 -0.14)">
       <use xlink:href="#BitstreamVeraSans-Roman-34"/>
      </g>
     </g>
    </g>
    <g id="ytick_6">
     <g id="line2d_15">
      <path clip-path="url(#p9aadfa2025)" d="M 86.4 89.52773 
L 622.08 89.52773 
" style="fill:none;stroke:#586e75;stroke-dasharray:1.000000,3.000000;stroke-dashoffset:0.0;stroke-width:0.5;"/>
     </g>
     <g id="line2d_16">
      <g>
       <use style="fill:none;" x="86.4" xlink:href="#m43b83e7c62" y="89.5277295725"/>
      </g>
     </g>
     <g id="text_11">
      <!-- 5 -->
      <defs>
       <path d="M 10.796875 72.90625 
L 49.515625 72.90625 
L 49.515625 64.59375 
L 19.828125 64.59375 
L 19.828125 46.734375 
Q 21.96875 47.46875 24.109375 47.828125 
Q 26.265625 48.1875 28.421875 48.1875 
Q 40.625 48.1875 47.75 41.5 
Q 54.890625 34.8125 54.890625 23.390625 
Q 54.890625 11.625 47.5625 5.09375 
Q 40.234375 -1.421875 26.90625 -1.421875 
Q 22.3125 -1.421875 17.546875 -0.640625 
Q 12.796875 0.140625 7.71875 1.703125 
L 7.71875 11.625 
Q 12.109375 9.234375 16.796875 8.0625 
Q 21.484375 6.890625 26.703125 6.890625 
Q 35.15625 6.890625 40.078125 11.328125 
Q 45.015625 15.765625 45.015625 23.390625 
Q 45.015625 31 40.078125 35.4375 
Q 35.15625 39.890625 26.703125 39.890625 
Q 22.75 39.890625 18.8125 39.015625 
Q 14.890625 38.140625 10.796875 36.28125 
z
" id="BitstreamVeraSans-Roman-35"/>
      </defs>
      <g transform="translate(73.4925 93.3908545725)scale(0.14 -0.14)">
       <use xlink:href="#BitstreamVeraSans-Roman-35"/>
      </g>
     </g>
    </g>
    <g id="ytick_7">
     <g id="line2d_17">
      <path clip-path="url(#p9aadfa2025)" d="M 86.4 39.393275 
L 622.08 39.393275 
" style="fill:none;stroke:#586e75;stroke-dasharray:1.000000,3.000000;stroke-dashoffset:0.0;stroke-width:0.5;"/>
     </g>
     <g id="line2d_18">
      <g>
       <use style="fill:none;" x="86.4" xlink:href="#m43b83e7c62" y="39.393275487"/>
      </g>
     </g>
     <g id="text_12">
      <!-- 6 -->
      <defs>
       <path d="M 33.015625 40.375 
Q 26.375 40.375 22.484375 35.828125 
Q 18.609375 31.296875 18.609375 23.390625 
Q 18.609375 15.53125 22.484375 10.953125 
Q 26.375 6.390625 33.015625 6.390625 
Q 39.65625 6.390625 43.53125 10.953125 
Q 47.40625 15.53125 47.40625 23.390625 
Q 47.40625 31.296875 43.53125 35.828125 
Q 39.65625 40.375 33.015625 40.375 
M 52.59375 71.296875 
L 52.59375 62.3125 
Q 48.875 64.0625 45.09375 64.984375 
Q 41.3125 65.921875 37.59375 65.921875 
Q 27.828125 65.921875 22.671875 59.328125 
Q 17.53125 52.734375 16.796875 39.40625 
Q 19.671875 43.65625 24.015625 45.921875 
Q 28.375 48.1875 33.59375 48.1875 
Q 44.578125 48.1875 50.953125 41.515625 
Q 57.328125 34.859375 57.328125 23.390625 
Q 57.328125 12.15625 50.6875 5.359375 
Q 44.046875 -1.421875 33.015625 -1.421875 
Q 20.359375 -1.421875 13.671875 8.265625 
Q 6.984375 17.96875 6.984375 36.375 
Q 6.984375 53.65625 15.1875 63.9375 
Q 23.390625 74.21875 37.203125 74.21875 
Q 40.921875 74.21875 44.703125 73.484375 
Q 48.484375 72.75 52.59375 71.296875 
" id="BitstreamVeraSans-Roman-36"/>
      </defs>
      <g transform="translate(73.4925 43.256400487)scale(0.14 -0.14)">
       <use xlink:href="#BitstreamVeraSans-Roman-36"/>
      </g>
     </g>
    </g>
    <g id="text_13">
     <!-- Population Sizes -->
     <defs>
      <path d="M 54.890625 33.015625 
L 54.890625 0 
L 45.90625 0 
L 45.90625 32.71875 
Q 45.90625 40.484375 42.875 44.328125 
Q 39.84375 48.1875 33.796875 48.1875 
Q 26.515625 48.1875 22.3125 43.546875 
Q 18.109375 38.921875 18.109375 30.90625 
L 18.109375 0 
L 9.078125 0 
L 9.078125 54.6875 
L 18.109375 54.6875 
L 18.109375 46.1875 
Q 21.34375 51.125 25.703125 53.5625 
Q 30.078125 56 35.796875 56 
Q 45.21875 56 50.046875 50.171875 
Q 54.890625 44.34375 54.890625 33.015625 
" id="BitstreamVeraSans-Roman-6e"/>
      <path d="M 9.421875 75.984375 
L 18.40625 75.984375 
L 18.40625 0 
L 9.421875 0 
z
" id="BitstreamVeraSans-Roman-6c"/>
      <path d="M 5.515625 54.6875 
L 48.1875 54.6875 
L 48.1875 46.484375 
L 14.40625 7.171875 
L 48.1875 7.171875 
L 48.1875 0 
L 4.296875 0 
L 4.296875 8.203125 
L 38.09375 47.515625 
L 5.515625 47.515625 
z
" id="BitstreamVeraSans-Roman-7a"/>
      <path d="M 19.671875 64.796875 
L 19.671875 37.40625 
L 32.078125 37.40625 
Q 38.96875 37.40625 42.71875 40.96875 
Q 46.484375 44.53125 46.484375 51.125 
Q 46.484375 57.671875 42.71875 61.234375 
Q 38.96875 64.796875 32.078125 64.796875 
z
M 9.8125 72.90625 
L 32.078125 72.90625 
Q 44.34375 72.90625 50.609375 67.359375 
Q 56.890625 61.8125 56.890625 51.125 
Q 56.890625 40.328125 50.609375 34.8125 
Q 44.34375 29.296875 32.078125 29.296875 
L 19.671875 29.296875 
L 19.671875 0 
L 9.8125 0 
z
" id="BitstreamVeraSans-Roman-50"/>
      <path d="M 53.515625 70.515625 
L 53.515625 60.890625 
Q 47.90625 63.578125 42.921875 64.890625 
Q 37.9375 66.21875 33.296875 66.21875 
Q 25.25 66.21875 20.875 63.09375 
Q 16.5 59.96875 16.5 54.203125 
Q 16.5 49.359375 19.40625 46.890625 
Q 22.3125 44.4375 30.421875 42.921875 
L 36.375 41.703125 
Q 47.40625 39.59375 52.65625 34.296875 
Q 57.90625 29 57.90625 20.125 
Q 57.90625 9.515625 50.796875 4.046875 
Q 43.703125 -1.421875 29.984375 -1.421875 
Q 24.8125 -1.421875 18.96875 -0.25 
Q 13.140625 0.921875 6.890625 3.21875 
L 6.890625 13.375 
Q 12.890625 10.015625 18.65625 8.296875 
Q 24.421875 6.59375 29.984375 6.59375 
Q 38.421875 6.59375 43.015625 9.90625 
Q 47.609375 13.234375 47.609375 19.390625 
Q 47.609375 24.75 44.3125 27.78125 
Q 41.015625 30.8125 33.5 32.328125 
L 27.484375 33.5 
Q 16.453125 35.6875 11.515625 40.375 
Q 6.59375 45.0625 6.59375 53.421875 
Q 6.59375 63.09375 13.40625 68.65625 
Q 20.21875 74.21875 32.171875 74.21875 
Q 37.3125 74.21875 42.625 73.28125 
Q 47.953125 72.359375 53.515625 70.515625 
" id="BitstreamVeraSans-Roman-53"/>
      <path d="M 18.3125 70.21875 
L 18.3125 54.6875 
L 36.8125 54.6875 
L 36.8125 47.703125 
L 18.3125 47.703125 
L 18.3125 18.015625 
Q 18.3125 11.328125 20.140625 9.421875 
Q 21.96875 7.515625 27.59375 7.515625 
L 36.8125 7.515625 
L 36.8125 0 
L 27.59375 0 
Q 17.1875 0 13.234375 3.875 
Q 9.28125 7.765625 9.28125 18.015625 
L 9.28125 47.703125 
L 2.6875 47.703125 
L 2.6875 54.6875 
L 9.28125 54.6875 
L 9.28125 70.21875 
z
" id="BitstreamVeraSans-Roman-74"/>
      <path d="M 8.5 21.578125 
L 8.5 54.6875 
L 17.484375 54.6875 
L 17.484375 21.921875 
Q 17.484375 14.15625 20.5 10.265625 
Q 23.53125 6.390625 29.59375 6.390625 
Q 36.859375 6.390625 41.078125 11.03125 
Q 45.3125 15.671875 45.3125 23.6875 
L 45.3125 54.6875 
L 54.296875 54.6875 
L 54.296875 0 
L 45.3125 0 
L 45.3125 8.40625 
Q 42.046875 3.421875 37.71875 1 
Q 33.40625 -1.421875 27.6875 -1.421875 
Q 18.265625 -1.421875 13.375 4.4375 
Q 8.5 10.296875 8.5 21.578125 
" id="BitstreamVeraSans-Roman-75"/>
      <path d="M 34.28125 27.484375 
Q 23.390625 27.484375 19.1875 25 
Q 14.984375 22.515625 14.984375 16.5 
Q 14.984375 11.71875 18.140625 8.90625 
Q 21.296875 6.109375 26.703125 6.109375 
Q 34.1875 6.109375 38.703125 11.40625 
Q 43.21875 16.703125 43.21875 25.484375 
L 43.21875 27.484375 
z
M 52.203125 31.203125 
L 52.203125 0 
L 43.21875 0 
L 43.21875 8.296875 
Q 40.140625 3.328125 35.546875 0.953125 
Q 30.953125 -1.421875 24.3125 -1.421875 
Q 15.921875 -1.421875 10.953125 3.296875 
Q 6 8.015625 6 15.921875 
Q 6 25.140625 12.171875 29.828125 
Q 18.359375 34.515625 30.609375 34.515625 
L 43.21875 34.515625 
L 43.21875 35.40625 
Q 43.21875 41.609375 39.140625 45 
Q 35.0625 48.390625 27.6875 48.390625 
Q 23 48.390625 18.546875 47.265625 
Q 14.109375 46.140625 10.015625 43.890625 
L 10.015625 52.203125 
Q 14.9375 54.109375 19.578125 55.046875 
Q 24.21875 56 28.609375 56 
Q 40.484375 56 46.34375 49.84375 
Q 52.203125 43.703125 52.203125 31.203125 
" id="BitstreamVeraSans-Roman-61"/>
      <path d="M 44.28125 53.078125 
L 44.28125 44.578125 
Q 40.484375 46.53125 36.375 47.5 
Q 32.28125 48.484375 27.875 48.484375 
Q 21.1875 48.484375 17.84375 46.4375 
Q 14.5 44.390625 14.5 40.28125 
Q 14.5 37.15625 16.890625 35.375 
Q 19.28125 33.59375 26.515625 31.984375 
L 29.59375 31.296875 
Q 39.15625 29.25 43.1875 25.515625 
Q 47.21875 21.78125 47.21875 15.09375 
Q 47.21875 7.46875 41.1875 3.015625 
Q 35.15625 -1.421875 24.609375 -1.421875 
Q 20.21875 -1.421875 15.453125 -0.5625 
Q 10.6875 0.296875 5.421875 2 
L 5.421875 11.28125 
Q 10.40625 8.6875 15.234375 7.390625 
Q 20.0625 6.109375 24.8125 6.109375 
Q 31.15625 6.109375 34.5625 8.28125 
Q 37.984375 10.453125 37.984375 14.40625 
Q 37.984375 18.0625 35.515625 20.015625 
Q 33.0625 21.96875 24.703125 23.78125 
L 21.578125 24.515625 
Q 13.234375 26.265625 9.515625 29.90625 
Q 5.8125 33.546875 5.8125 39.890625 
Q 5.8125 47.609375 11.28125 51.796875 
Q 16.75 56 26.8125 56 
Q 31.78125 56 36.171875 55.265625 
Q 40.578125 54.546875 44.28125 53.078125 
" id="BitstreamVeraSans-Roman-73"/>
      <path d="M 18.109375 8.203125 
L 18.109375 -20.796875 
L 9.078125 -20.796875 
L 9.078125 54.6875 
L 18.109375 54.6875 
L 18.109375 46.390625 
Q 20.953125 51.265625 25.265625 53.625 
Q 29.59375 56 35.59375 56 
Q 45.5625 56 51.78125 48.09375 
Q 58.015625 40.1875 58.015625 27.296875 
Q 58.015625 14.40625 51.78125 6.484375 
Q 45.5625 -1.421875 35.59375 -1.421875 
Q 29.59375 -1.421875 25.265625 0.953125 
Q 20.953125 3.328125 18.109375 8.203125 
M 48.6875 27.296875 
Q 48.6875 37.203125 44.609375 42.84375 
Q 40.53125 48.484375 33.40625 48.484375 
Q 26.265625 48.484375 22.1875 42.84375 
Q 18.109375 37.203125 18.109375 27.296875 
Q 18.109375 17.390625 22.1875 11.75 
Q 26.265625 6.109375 33.40625 6.109375 
Q 40.53125 6.109375 44.609375 11.75 
Q 48.6875 17.390625 48.6875 27.296875 
" id="BitstreamVeraSans-Roman-70"/>
     </defs>
     <g style="fill:#002b36;" transform="translate(65.165 254.985)rotate(-90.0)scale(0.16 -0.16)">
      <use xlink:href="#BitstreamVeraSans-Roman-50"/>
      <use x="60.255859375" xlink:href="#BitstreamVeraSans-Roman-6f"/>
      <use x="121.4375" xlink:href="#BitstreamVeraSans-Roman-70"/>
      <use x="184.9140625" xlink:href="#BitstreamVeraSans-Roman-75"/>
      <use x="248.29296875" xlink:href="#BitstreamVeraSans-Roman-6c"/>
      <use x="276.076171875" xlink:href="#BitstreamVeraSans-Roman-61"/>
      <use x="337.35546875" xlink:href="#BitstreamVeraSans-Roman-74"/>
      <use x="376.564453125" xlink:href="#BitstreamVeraSans-Roman-69"/>
      <use x="404.34765625" xlink:href="#BitstreamVeraSans-Roman-6f"/>
      <use x="465.529296875" xlink:href="#BitstreamVeraSans-Roman-6e"/>
      <use x="528.908203125" xlink:href="#BitstreamVeraSans-Roman-20"/>
      <use x="560.6953125" xlink:href="#BitstreamVeraSans-Roman-53"/>
      <use x="624.171875" xlink:href="#BitstreamVeraSans-Roman-69"/>
      <use x="651.955078125" xlink:href="#BitstreamVeraSans-Roman-7a"/>
      <use x="704.4453125" xlink:href="#BitstreamVeraSans-Roman-65"/>
      <use x="765.96875" xlink:href="#BitstreamVeraSans-Roman-73"/>
     </g>
    </g>
   </g>
   <g id="text_14">
    <!-- ancient migration -->
    <defs>
     <path d="M 41.109375 46.296875 
Q 39.59375 47.171875 37.8125 47.578125 
Q 36.03125 48 33.890625 48 
Q 26.265625 48 22.1875 43.046875 
Q 18.109375 38.09375 18.109375 28.8125 
L 18.109375 0 
L 9.078125 0 
L 9.078125 54.6875 
L 18.109375 54.6875 
L 18.109375 46.1875 
Q 20.953125 51.171875 25.484375 53.578125 
Q 30.03125 56 36.53125 56 
Q 37.453125 56 38.578125 55.875 
Q 39.703125 55.765625 41.0625 55.515625 
z
" id="BitstreamVeraSans-Roman-72"/>
     <path d="M 48.78125 52.59375 
L 48.78125 44.1875 
Q 44.96875 46.296875 41.140625 47.34375 
Q 37.3125 48.390625 33.40625 48.390625 
Q 24.65625 48.390625 19.8125 42.84375 
Q 14.984375 37.3125 14.984375 27.296875 
Q 14.984375 17.28125 19.8125 11.734375 
Q 24.65625 6.203125 33.40625 6.203125 
Q 37.3125 6.203125 41.140625 7.25 
Q 44.96875 8.296875 48.78125 10.40625 
L 48.78125 2.09375 
Q 45.015625 0.34375 40.984375 -0.53125 
Q 36.96875 -1.421875 32.421875 -1.421875 
Q 20.0625 -1.421875 12.78125 6.34375 
Q 5.515625 14.109375 5.515625 27.296875 
Q 5.515625 40.671875 12.859375 48.328125 
Q 20.21875 56 33.015625 56 
Q 37.15625 56 41.109375 55.140625 
Q 45.0625 54.296875 48.78125 52.59375 
" id="BitstreamVeraSans-Roman-63"/>
    </defs>
    <g style="fill:#002b36;" transform="translate(247.929375 33.88)scale(0.24 -0.24)">
     <use xlink:href="#BitstreamVeraSans-Roman-61"/>
     <use x="61.279296875" xlink:href="#BitstreamVeraSans-Roman-6e"/>
     <use x="124.658203125" xlink:href="#BitstreamVeraSans-Roman-63"/>
     <use x="179.638671875" xlink:href="#BitstreamVeraSans-Roman-69"/>
     <use x="207.421875" xlink:href="#BitstreamVeraSans-Roman-65"/>
     <use x="268.9453125" xlink:href="#BitstreamVeraSans-Roman-6e"/>
     <use x="332.32421875" xlink:href="#BitstreamVeraSans-Roman-74"/>
     <use x="371.533203125" xlink:href="#BitstreamVeraSans-Roman-20"/>
     <use x="403.3203125" xlink:href="#BitstreamVeraSans-Roman-6d"/>
     <use x="500.732421875" xlink:href="#BitstreamVeraSans-Roman-69"/>
     <use x="528.515625" xlink:href="#BitstreamVeraSans-Roman-67"/>
     <use x="591.9921875" xlink:href="#BitstreamVeraSans-Roman-72"/>
     <use x="633.10546875" xlink:href="#BitstreamVeraSans-Roman-61"/>
     <use x="694.384765625" xlink:href="#BitstreamVeraSans-Roman-74"/>
     <use x="733.59375" xlink:href="#BitstreamVeraSans-Roman-69"/>
     <use x="761.376953125" xlink:href="#BitstreamVeraSans-Roman-6f"/>
     <use x="822.55859375" xlink:href="#BitstreamVeraSans-Roman-6e"/>
    </g>
   </g>
   <g id="text_15">
    <!-- 348861 -->
    <defs>
     <path d="M 31.78125 34.625 
Q 24.75 34.625 20.71875 30.859375 
Q 16.703125 27.09375 16.703125 20.515625 
Q 16.703125 13.921875 20.71875 10.15625 
Q 24.75 6.390625 31.78125 6.390625 
Q 38.8125 6.390625 42.859375 10.171875 
Q 46.921875 13.96875 46.921875 20.515625 
Q 46.921875 27.09375 42.890625 30.859375 
Q 38.875 34.625 31.78125 34.625 
M 21.921875 38.8125 
Q 15.578125 40.375 12.03125 44.71875 
Q 8.5 49.078125 8.5 55.328125 
Q 8.5 64.0625 14.71875 69.140625 
Q 20.953125 74.21875 31.78125 74.21875 
Q 42.671875 74.21875 48.875 69.140625 
Q 55.078125 64.0625 55.078125 55.328125 
Q 55.078125 49.078125 51.53125 44.71875 
Q 48 40.375 41.703125 38.8125 
Q 48.828125 37.15625 52.796875 32.3125 
Q 56.78125 27.484375 56.78125 20.515625 
Q 56.78125 9.90625 50.3125 4.234375 
Q 43.84375 -1.421875 31.78125 -1.421875 
Q 19.734375 -1.421875 13.25 4.234375 
Q 6.78125 9.90625 6.78125 20.515625 
Q 6.78125 27.484375 10.78125 32.3125 
Q 14.796875 37.15625 21.921875 38.8125 
M 18.3125 54.390625 
Q 18.3125 48.734375 21.84375 45.5625 
Q 25.390625 42.390625 31.78125 42.390625 
Q 38.140625 42.390625 41.71875 45.5625 
Q 45.3125 48.734375 45.3125 54.390625 
Q 45.3125 60.0625 41.71875 63.234375 
Q 38.140625 66.40625 31.78125 66.40625 
Q 25.390625 66.40625 21.84375 63.234375 
Q 18.3125 60.0625 18.3125 54.390625 
" id="BitstreamVeraSans-Roman-38"/>
    </defs>
    <g style="fill:#002b36;" transform="translate(94.8 76.3472270427)scale(0.14 -0.14)">
     <use xlink:href="#BitstreamVeraSans-Roman-33"/>
     <use x="63.623046875" xlink:href="#BitstreamVeraSans-Roman-34"/>
     <use x="127.24609375" xlink:href="#BitstreamVeraSans-Roman-38"/>
     <use x="190.869140625" xlink:href="#BitstreamVeraSans-Roman-38"/>
     <use x="254.4921875" xlink:href="#BitstreamVeraSans-Roman-36"/>
     <use x="318.115234375" xlink:href="#BitstreamVeraSans-Roman-31"/>
    </g>
   </g>
   <g id="patch_104">
    <path clip-path="url(#p9aadfa2025)" d="M 152.971891 47.28 
L 155.893782 53.3064 
L 153.945855 53.3064 
L 153.945855 84.880841 
L 151.997927 84.880841 
L 151.997927 53.3064 
L 150.05 53.3064 
z
" style="fill:#002b36;stroke:#002b36;stroke-linejoin:miter;"/>
   </g>
   <g id="patch_105">
    <path clip-path="url(#p9aadfa2025)" d="M 152.971891 97.414454 
L 150.05 91.388054 
L 151.997927 91.388054 
L 151.997927 59.813614 
L 153.945855 59.813614 
L 153.945855 91.388054 
L 155.893782 91.388054 
z
" style="fill:#002b36;stroke:#002b36;stroke-linejoin:miter;"/>
   </g>
   <g id="patch_106">
    <path d="M 157.893782 97.414454 
L 238.919162 97.414454 
L 238.919162 47.28 
L 157.893782 47.28 
z
" style="fill:#268bd2;stroke:#268bd2;stroke-linejoin:miter;"/>
   </g>
   <g id="patch_107">
    <path clip-path="url(#p9aadfa2025)" d="M 152.971891 47.28 
L 155.893782 53.3064 
L 153.945855 53.3064 
L 153.945855 84.880841 
L 151.997927 84.880841 
L 151.997927 53.3064 
L 150.05 53.3064 
z
" style="fill:#002b36;stroke:#002b36;stroke-linejoin:miter;"/>
   </g>
   <g id="patch_108">
    <path clip-path="url(#p9aadfa2025)" d="M 152.971891 97.414454 
L 150.05 91.388054 
L 151.997927 91.388054 
L 151.997927 59.813614 
L 153.945855 59.813614 
L 153.945855 91.388054 
L 155.893782 91.388054 
z
" style="fill:#002b36;stroke:#002b36;stroke-linejoin:miter;"/>
   </g>
  </g>
  <g id="axes_2">
   <g id="patch_109">
    <path d="M 86.4 38.88 
L 622.08 38.88 
" style="fill:none;stroke:#002b36;stroke-linecap:square;stroke-linejoin:miter;"/>
   </g>
   <g id="patch_110">
    <path d="M 622.08 340.2 
L 622.08 38.88 
" style="fill:none;stroke:#002b36;stroke-linecap:square;stroke-linejoin:miter;"/>
   </g>
   <g id="patch_111">
    <path d="M 86.4 340.2 
L 622.08 340.2 
" style="fill:none;stroke:#002b36;stroke-linecap:square;stroke-linejoin:miter;"/>
   </g>
   <g id="patch_112">
    <path d="M 86.4 340.2 
L 86.4 38.88 
" style="fill:none;stroke:#002b36;stroke-linecap:square;stroke-linejoin:miter;"/>
   </g>
   <g id="matplotlib.axis_3">
    <g id="ytick_8">
     <g id="text_16">
      <!-- ERY -->
      <defs>
       <path d="M 9.8125 72.90625 
L 55.90625 72.90625 
L 55.90625 64.59375 
L 19.671875 64.59375 
L 19.671875 43.015625 
L 54.390625 43.015625 
L 54.390625 34.71875 
L 19.671875 34.71875 
L 19.671875 8.296875 
L 56.78125 8.296875 
L 56.78125 0 
L 9.8125 0 
z
" id="BitstreamVeraSans-Roman-45"/>
       <path d="M 44.390625 34.1875 
Q 47.5625 33.109375 50.5625 29.59375 
Q 53.5625 26.078125 56.59375 19.921875 
L 66.609375 0 
L 56 0 
L 46.6875 18.703125 
Q 43.0625 26.03125 39.671875 28.421875 
Q 36.28125 30.8125 30.421875 30.8125 
L 19.671875 30.8125 
L 19.671875 0 
L 9.8125 0 
L 9.8125 72.90625 
L 32.078125 72.90625 
Q 44.578125 72.90625 50.734375 67.671875 
Q 56.890625 62.453125 56.890625 51.90625 
Q 56.890625 45.015625 53.6875 40.46875 
Q 50.484375 35.9375 44.390625 34.1875 
M 19.671875 64.796875 
L 19.671875 38.921875 
L 32.078125 38.921875 
Q 39.203125 38.921875 42.84375 42.21875 
Q 46.484375 45.515625 46.484375 51.90625 
Q 46.484375 58.296875 42.84375 61.546875 
Q 39.203125 64.796875 32.078125 64.796875 
z
" id="BitstreamVeraSans-Roman-52"/>
      </defs>
      <g style="fill:#002b36;" transform="translate(626.08 309.388818147)scale(0.16 -0.16)">
       <use xlink:href="#BitstreamVeraSans-Roman-45"/>
       <use x="63.18359375" xlink:href="#BitstreamVeraSans-Roman-52"/>
       <use x="132.572265625" xlink:href="#BitstreamVeraSans-Roman-59"/>
      </g>
     </g>
    </g>
    <g id="ytick_9">
     <g id="text_17">
      <!-- PAR -->
      <g style="fill:#002b36;" transform="translate(626.08 133.661591104)scale(0.16 -0.16)">
       <use xlink:href="#BitstreamVeraSans-Roman-50"/>
       <use x="60.208984375" xlink:href="#BitstreamVeraSans-Roman-41"/>
       <use x="128.6171875" xlink:href="#BitstreamVeraSans-Roman-52"/>
      </g>
     </g>
    </g>
   </g>
  </g>
 </g>
 <defs>
  <clipPath id="p9aadfa2025">
   <rect height="301.32" width="535.68" x="86.4" y="38.88"/>
  </clipPath>
 </defs>
</svg>
