<?xml version="1.0" encoding="UTF-8" standalone="no"?>
<!-- Created with Inkscape (http://www.inkscape.org/) -->

<svg
   xmlns:dc="http://purl.org/dc/elements/1.1/"
   xmlns:cc="http://creativecommons.org/ns#"
   xmlns:rdf="http://www.w3.org/1999/02/22-rdf-syntax-ns#"
   xmlns:svg="http://www.w3.org/2000/svg"
   xmlns="http://www.w3.org/2000/svg"
   xmlns:sodipodi="http://sodipodi.sourceforge.net/DTD/sodipodi-0.dtd"
   xmlns:inkscape="http://www.inkscape.org/namespaces/inkscape"
   width="210mm"
   height="297mm"
   viewBox="0 0 744.09448819 1052.3622047"
   id="svg11351"
   version="1.1"
   inkscape:version="0.91 r13725"
   sodipodi:docname="RAD_sketches.svg">
  <defs
     id="defs11353" />
  <sodipodi:namedview
     id="base"
     pagecolor="#ffffff"
     bordercolor="#666666"
     borderopacity="1.0"
     inkscape:pageopacity="0.0"
     inkscape:pageshadow="2"
     inkscape:zoom="0.9128301"
     inkscape:cx="249.56146"
     inkscape:cy="548.57143"
     inkscape:document-units="px"
     inkscape:current-layer="layer1"
     showgrid="false"
     inkscape:window-width="1280"
     inkscape:window-height="752"
     inkscape:window-x="54"
     inkscape:window-y="22"
     inkscape:window-maximized="0" />
  <metadata
     id="metadata11356">
    <rdf:RDF>
      <cc:Work
         rdf:about="">
        <dc:format>image/svg+xml</dc:format>
        <dc:type
           rdf:resource="http://purl.org/dc/dcmitype/StillImage" />
        <dc:title></dc:title>
      </cc:Work>
    </rdf:RDF>
  </metadata>
  <g
     inkscape:label="Layer 1"
     inkscape:groupmode="layer"
     id="layer1">
    <g
       id="g14349">
      <g
         id="g12346">
        <g
           transform="matrix(1.25,0,0,1.25,-268.00358,442.72577)"
           id="g12188">
          <path
             inkscape:connector-curvature="0"
             id="path12190"
             style="fill:none;stroke:#ababab;stroke-width:7.01679993;stroke-linecap:butt;stroke-linejoin:miter;stroke-miterlimit:4;stroke-dasharray:none;stroke-opacity:1"
             d="m 235.594,24.176 483.332,0" />
        </g>
        <path
           inkscape:connector-curvature="0"
           id="path12192"
           style="fill:#008000;fill-opacity:1;fill-rule:nonzero;stroke:none"
           d="m 99.76517,480.78199 c -8.09125,1.07 -17.15375,-3.70625 -22.12875,-11.67 -4.97125,-7.96375 -4.62,-17.13875 0.85375,-22.40125 5.47875,-5.26375 14.7275,-5.3175 22.58375,-0.1275 7.85625,5.19 12.3725,14.34125 11.035,22.33875 l -18.8725,-7.095 6.52875,18.955 z" />
        <path
           inkscape:connector-curvature="0"
           id="path12194"
           style="fill:#008000;fill-opacity:1;fill-rule:nonzero;stroke:none"
           d="m 606.32267,480.78199 c -8.09125,1.07 -17.15875,-3.70625 -22.12875,-11.67 -4.97125,-7.96375 -4.62,-17.13875 0.85375,-22.40125 5.47875,-5.26375 14.7275,-5.3175 22.58375,-0.1275 7.85125,5.19 12.3725,14.34125 11.03,22.33875 l -18.8675,-7.095 6.52875,18.955 z" />
        <path
           inkscape:connector-curvature="0"
           id="path12196"
           style="fill:#c93b3b;fill-opacity:1;fill-rule:nonzero;stroke:none"
           d="m 318.32892,480.78199 c -8.095,1.07 -17.1575,-3.70625 -22.12875,-11.67 -4.97,-7.96375 -4.62375,-17.13875 0.855,-22.40125 5.47875,-5.26375 14.72625,-5.3175 22.5775,-0.1275 7.8575,5.19 12.37875,14.34125 11.03625,22.33875 l -18.8675,-7.095 6.5275,18.955 z" />
        <path
           inkscape:connector-curvature="0"
           id="path12198"
           style="fill:#c83737;fill-opacity:1;fill-rule:nonzero;stroke:none"
           d="m 166.72767,480.78199 c -8.095,1.07 -17.1575,-3.70625 -22.12875,-11.67 -4.97125,-7.96375 -4.62375,-17.13875 0.855,-22.40125 5.4775,-5.26375 14.72625,-5.3175 22.5775,-0.1275 7.85625,5.19 12.3775,14.34125 11.035,22.33875 l -18.8675,-7.095 6.52875,18.955 z" />
        <path
           inkscape:connector-curvature="0"
           id="path12200"
           style="fill:#c83737;fill-opacity:1;fill-rule:nonzero;stroke:none"
           d="m 373.66142,480.78199 c -8.09125,1.07 -17.15875,-3.70625 -22.12875,-11.67 -4.97125,-7.96375 -4.61875,-17.13875 0.85375,-22.40125 5.47875,-5.26375 14.7275,-5.3175 22.58375,-0.1275 7.85125,5.19 12.3725,14.34125 11.035,22.33875 l -18.8725,-7.095 6.52875,18.955 z" />
        <g
           transform="matrix(1.25,0,0,1.25,-268.00358,442.72577)"
           id="g12202">
          <path
             inkscape:connector-curvature="0"
             id="path12204"
             style="fill:none;stroke:#ababab;stroke-width:7.01679993;stroke-linecap:butt;stroke-linejoin:miter;stroke-miterlimit:4;stroke-dasharray:none;stroke-opacity:1"
             d="m 517.949,53.855 177.254,0" />
        </g>
        <g
           transform="matrix(1.25,0,0,1.25,-268.00358,442.72577)"
           id="g12206">
          <path
             inkscape:connector-curvature="0"
             id="path12208"
             style="fill:none;stroke:#008000;stroke-width:7.01679993;stroke-linecap:butt;stroke-linejoin:miter;stroke-miterlimit:4;stroke-dasharray:none;stroke-opacity:1"
             d="m 695.098,53.941 5.109,0" />
        </g>
        <g
           transform="matrix(1.25,0,0,1.25,-268.00358,442.72577)"
           id="g12210">
          <path
             inkscape:connector-curvature="0"
             id="path12212"
             style="fill:none;stroke:#c83737;stroke-width:7.01679993;stroke-linecap:butt;stroke-linejoin:miter;stroke-miterlimit:4;stroke-dasharray:none;stroke-opacity:1"
             d="m 512.977,53.941 5.109,0" />
        </g>
        <g
           transform="matrix(1.25,0,0,1.25,-268.00358,442.72577)"
           id="g12214">
          <path
             inkscape:connector-curvature="0"
             id="path12216"
             style="fill:none;stroke:#ababab;stroke-width:7.01679993;stroke-linecap:butt;stroke-linejoin:miter;stroke-miterlimit:4;stroke-dasharray:none;stroke-opacity:1"
             d="m 465.871,67.359 47.211,0" />
        </g>
        <g
           transform="matrix(1.25,0,0,1.25,-268.00358,442.72577)"
           id="g12218">
          <path
             inkscape:connector-curvature="0"
             id="path12220"
             style="fill:none;stroke:#c83737;stroke-width:7.01679993;stroke-linecap:butt;stroke-linejoin:miter;stroke-miterlimit:4;stroke-dasharray:none;stroke-opacity:1"
             d="m 512.965,67.359 5.109,0" />
        </g>
        <g
           transform="matrix(1.25,0,0,1.25,-268.00358,442.72577)"
           id="g12222">
          <path
             inkscape:connector-curvature="0"
             id="path12224"
             style="fill:none;stroke:#c83737;stroke-width:7.01679993;stroke-linecap:butt;stroke-linejoin:miter;stroke-miterlimit:4;stroke-dasharray:none;stroke-opacity:1"
             d="m 460.887,67.359 5.109,0" />
        </g>
        <g
           transform="matrix(1.25,0,0,1.25,-268.00358,442.72577)"
           id="g12226">
          <path
             inkscape:connector-curvature="0"
             id="path12228"
             style="fill:none;stroke:#ababab;stroke-width:7.01679993;stroke-linecap:butt;stroke-linejoin:miter;stroke-miterlimit:4;stroke-dasharray:none;stroke-opacity:1"
             d="m 348.664,80.777 112.219,0" />
        </g>
        <g
           transform="matrix(1.25,0,0,1.25,-268.00358,442.72577)"
           id="g12230">
          <path
             inkscape:connector-curvature="0"
             id="path12232"
             style="fill:none;stroke:#c83737;stroke-width:7.01679993;stroke-linecap:butt;stroke-linejoin:miter;stroke-miterlimit:4;stroke-dasharray:none;stroke-opacity:1"
             d="m 460.613,80.777 5.11,0" />
        </g>
        <g
           transform="matrix(1.25,0,0,1.25,-268.00358,442.72577)"
           id="g12234">
          <path
             inkscape:connector-curvature="0"
             id="path12236"
             style="fill:none;stroke:#c83737;stroke-width:7.01679993;stroke-linecap:butt;stroke-linejoin:miter;stroke-miterlimit:4;stroke-dasharray:none;stroke-opacity:1"
             d="m 343.617,80.777 5.106,0" />
        </g>
        <g
           transform="matrix(1.25,0,0,1.25,-268.00358,442.72577)"
           id="g12238">
          <path
             inkscape:connector-curvature="0"
             id="path12240"
             style="fill:none;stroke:#c83737;stroke-width:7.01679993;stroke-linecap:butt;stroke-linejoin:miter;stroke-miterlimit:4;stroke-dasharray:none;stroke-opacity:1"
             d="m 343.402,94.195 5.106,0" />
        </g>
        <g
           transform="matrix(1.25,0,0,1.25,-268.00358,442.72577)"
           id="g12242">
          <path
             inkscape:connector-curvature="0"
             id="path12244"
             style="fill:none;stroke:#ababab;stroke-width:7.01679993;stroke-linecap:butt;stroke-linejoin:miter;stroke-miterlimit:4;stroke-dasharray:none;stroke-opacity:1"
             d="m 291.887,94.195 51.605,0" />
        </g>
        <g
           transform="matrix(1.25,0,0,1.25,-268.00358,442.72577)"
           id="g12246">
          <path
             inkscape:connector-curvature="0"
             id="path12248"
             style="fill:none;stroke:#008000;stroke-width:7.01679993;stroke-linecap:butt;stroke-linejoin:miter;stroke-miterlimit:4;stroke-dasharray:none;stroke-opacity:1"
             d="m 286.809,94.195 5.109,0" />
        </g>
      </g>
      <text
         sodipodi:linespacing="125%"
         id="text14056"
         y="481.60977"
         x="-175.27905"
         style="font-style:normal;font-variant:normal;font-weight:normal;font-stretch:normal;font-size:20px;line-height:125%;font-family:Arial;-inkscape-font-specification:Arial;letter-spacing:0px;word-spacing:0px;fill:#000000;fill-opacity:1;stroke:none;stroke-width:1px;stroke-linecap:butt;stroke-linejoin:miter;stroke-opacity:1"
         xml:space="preserve"><tspan
           id="tspan14060"
           y="481.60977"
           x="-175.27905"
           sodipodi:role="line">double digestion</tspan></text>
      <text
         sodipodi:linespacing="125%"
         id="text14345"
         y="506.28363"
         x="-175.25952"
         style="font-style:normal;font-variant:normal;font-weight:normal;font-stretch:normal;font-size:20px;line-height:125%;font-family:Arial;-inkscape-font-specification:Arial;letter-spacing:0px;word-spacing:0px;fill:#000000;fill-opacity:1;stroke:none;stroke-width:1px;stroke-linecap:butt;stroke-linejoin:miter;stroke-opacity:1"
         xml:space="preserve"><tspan
           y="506.28363"
           x="-175.25952"
           id="tspan14347"
           sodipodi:role="line">of genomic DNA</tspan></text>
    </g>
  </g>
</svg>
